0
SECTION
2
HEADER
9
$INSUNITS
70
4
9
$INSBASE
10
0.0
20
0.0
30
0.0
9
$EXTMIN
10
0
20
0
9
$EXTMAX
10
280.5
20
100
0
ENDSEC
0
SECTION
2
TABLES
0
TABLE
2
LTYPE
70
1
0
LTYPE
2
CONTINUOUS
70
64
3
Solid line
72
65
73
0
40
0.0
0
ENDTAB
0
TABLE
2
LAYER
70
1
0
LAYER
2
Layer1
70
64
62
7
6
CONTINUOUS
0
ENDTAB
0
TABLE
2
STYLE
70
0
0
ENDTAB
0
TABLE
2
VIEW
70
0
0
ENDTAB
0
ENDSEC
0
SECTION
2
BLOCKS
0
ENDSEC
0
SECTION
2
ENTITIES
0
POLYLINE
5
1a52
8
Layer1
66
1
10
0.0
20
0.0
30
0.0
70
1
0
VERTEX
5
1a53
8
Layer1
10
0.0000
20
0.0000
30
0.0
0
VERTEX
5
1a54
8
Layer1
10
280.5000
20
0.0000
30
0.0
0
VERTEX
5
1a55
8
Layer1
10
280.5000
20
100.0000
30
0.0
0
VERTEX
5
1a56
8
Layer1
10
0.0000
20
100.0000
30
0.0
0
VERTEX
5
1a57
8
Layer1
10
0.0000
20
0.0000
30
0.0
0
SEQEND
5
1a58
8
Layer1
0
POLYLINE
5
1a59
8
Layer1
66
1
10
0.0
20
0.0
30
0.0
70
1
0
VERTEX
5
1a5a
8
Layer1
10
19.0000
20
82.0000
30
0.0
0
VERTEX
5
1a5b
8
Layer1
10
19.8000
20
82.0000
30
0.0
0
VERTEX
5
1a5c
8
Layer1
10
19.8000
20
94.0000
30
0.0
0
VERTEX
5
1a5d
8
Layer1
10
19.0000
20
94.0000
30
0.0
0
VERTEX
5
1a5e
8
Layer1
10
19.0000
20
95.0000
30
0.0
0
VERTEX
5
1a5f
8
Layer1
10
5.0000
20
95.0000
30
0.0
0
VERTEX
5
1a60
8
Layer1
10
5.0000
20
94.0000
30
0.0
0
VERTEX
5
1a61
8
Layer1
10
4.2000
20
94.0000
30
0.0
0
VERTEX
5
1a62
8
Layer1
10
4.2000
20
82.0000
30
0.0
0
VERTEX
5
1a63
8
Layer1
10
5.0000
20
82.0000
30
0.0
0
VERTEX
5
1a64
8
Layer1
10
5.0000
20
81.0000
30
0.0
0
VERTEX
5
1a65
8
Layer1
10
19.0000
20
81.0000
30
0.0
0
VERTEX
5
1a66
8
Layer1
10
19.0000
20
82.0000
30
0.0
0
SEQEND
5
1a67
8
Layer1
0
POLYLINE
5
1a68
8
Layer1
66
1
10
0.0
20
0.0
30
0.0
70
1
0
VERTEX
5
1a69
8
Layer1
10
38.0000
20
82.0000
30
0.0
0
VERTEX
5
1a6a
8
Layer1
10
38.8000
20
82.0000
30
0.0
0
VERTEX
5
1a6b
8
Layer1
10
38.8000
20
94.0000
30
0.0
0
VERTEX
5
1a6c
8
Layer1
10
38.0000
20
94.0000
30
0.0
0
VERTEX
5
1a6d
8
Layer1
10
38.0000
20
95.0000
30
0.0
0
VERTEX
5
1a6e
8
Layer1
10
24.0000
20
95.0000
30
0.0
0
VERTEX
5
1a6f
8
Layer1
10
24.0000
20
94.0000
30
0.0
0
VERTEX
5
1a70
8
Layer1
10
23.2000
20
94.0000
30
0.0
0
VERTEX
5
1a71
8
Layer1
10
23.2000
20
82.0000
30
0.0
0
VERTEX
5
1a72
8
Layer1
10
24.0000
20
82.0000
30
0.0
0
VERTEX
5
1a73
8
Layer1
10
24.0000
20
81.0000
30
0.0
0
VERTEX
5
1a74
8
Layer1
10
38.0000
20
81.0000
30
0.0
0
VERTEX
5
1a75
8
Layer1
10
38.0000
20
82.0000
30
0.0
0
SEQEND
5
1a76
8
Layer1
0
POLYLINE
5
1a77
8
Layer1
66
1
10
0.0
20
0.0
30
0.0
70
1
0
VERTEX
5
1a78
8
Layer1
10
57.0000
20
82.0000
30
0.0
0
VERTEX
5
1a79
8
Layer1
10
57.8000
20
82.0000
30
0.0
0
VERTEX
5
1a7a
8
Layer1
10
57.8000
20
94.0000
30
0.0
0
VERTEX
5
1a7b
8
Layer1
10
57.0000
20
94.0000
30
0.0
0
VERTEX
5
1a7c
8
Layer1
10
57.0000
20
95.0000
30
0.0
0
VERTEX
5
1a7d
8
Layer1
10
43.0000
20
95.0000
30
0.0
0
VERTEX
5
1a7e
8
Layer1
10
43.0000
20
94.0000
30
0.0
0
VERTEX
5
1a7f
8
Layer1
10
42.2000
20
94.0000
30
0.0
0
VERTEX
5
1a80
8
Layer1
10
42.2000
20
82.0000
30
0.0
0
VERTEX
5
1a81
8
Layer1
10
43.0000
20
82.0000
30
0.0
0
VERTEX
5
1a82
8
Layer1
10
43.0000
20
81.0000
30
0.0
0
VERTEX
5
1a83
8
Layer1
10
57.0000
20
81.0000
30
0.0
0
VERTEX
5
1a84
8
Layer1
10
57.0000
20
82.0000
30
0.0
0
SEQEND
5
1a85
8
Layer1
0
POLYLINE
5
1a86
8
Layer1
66
1
10
0.0
20
0.0
30
0.0
70
1
0
VERTEX
5
1a87
8
Layer1
10
76.0000
20
82.0000
30
0.0
0
VERTEX
5
1a88
8
Layer1
10
76.8000
20
82.0000
30
0.0
0
VERTEX
5
1a89
8
Layer1
10
76.8000
20
94.0000
30
0.0
0
VERTEX
5
1a8a
8
Layer1
10
76.0000
20
94.0000
30
0.0
0
VERTEX
5
1a8b
8
Layer1
10
76.0000
20
95.0000
30
0.0
0
VERTEX
5
1a8c
8
Layer1
10
62.0000
20
95.0000
30
0.0
0
VERTEX
5
1a8d
8
Layer1
10
62.0000
20
94.0000
30
0.0
0
VERTEX
5
1a8e
8
Layer1
10
61.2000
20
94.0000
30
0.0
0
VERTEX
5
1a8f
8
Layer1
10
61.2000
20
82.0000
30
0.0
0
VERTEX
5
1a90
8
Layer1
10
62.0000
20
82.0000
30
0.0
0
VERTEX
5
1a91
8
Layer1
10
62.0000
20
81.0000
30
0.0
0
VERTEX
5
1a92
8
Layer1
10
76.0000
20
81.0000
30
0.0
0
VERTEX
5
1a93
8
Layer1
10
76.0000
20
82.0000
30
0.0
0
SEQEND
5
1a94
8
Layer1
0
POLYLINE
5
1a95
8
Layer1
66
1
10
0.0
20
0.0
30
0.0
70
1
0
VERTEX
5
1a96
8
Layer1
10
95.0000
20
82.0000
30
0.0
0
VERTEX
5
1a97
8
Layer1
10
95.8000
20
82.0000
30
0.0
0
VERTEX
5
1a98
8
Layer1
10
95.8000
20
94.0000
30
0.0
0
VERTEX
5
1a99
8
Layer1
10
95.0000
20
94.0000
30
0.0
0
VERTEX
5
1a9a
8
Layer1
10
95.0000
20
95.0000
30
0.0
0
VERTEX
5
1a9b
8
Layer1
10
81.0000
20
95.0000
30
0.0
0
VERTEX
5
1a9c
8
Layer1
10
81.0000
20
94.0000
30
0.0
0
VERTEX
5
1a9d
8
Layer1
10
80.2000
20
94.0000
30
0.0
0
VERTEX
5
1a9e
8
Layer1
10
80.2000
20
82.0000
30
0.0
0
VERTEX
5
1a9f
8
Layer1
10
81.0000
20
82.0000
30
0.0
0
VERTEX
5
1aa0
8
Layer1
10
81.0000
20
81.0000
30
0.0
0
VERTEX
5
1aa1
8
Layer1
10
95.0000
20
81.0000
30
0.0
0
VERTEX
5
1aa2
8
Layer1
10
95.0000
20
82.0000
30
0.0
0
SEQEND
5
1aa3
8
Layer1
0
POLYLINE
5
1aa4
8
Layer1
66
1
10
0.0
20
0.0
30
0.0
70
1
0
VERTEX
5
1aa5
8
Layer1
10
114.0000
20
82.0000
30
0.0
0
VERTEX
5
1aa6
8
Layer1
10
114.8000
20
82.0000
30
0.0
0
VERTEX
5
1aa7
8
Layer1
10
114.8000
20
94.0000
30
0.0
0
VERTEX
5
1aa8
8
Layer1
10
114.0000
20
94.0000
30
0.0
0
VERTEX
5
1aa9
8
Layer1
10
114.0000
20
95.0000
30
0.0
0
VERTEX
5
1aaa
8
Layer1
10
100.0000
20
95.0000
30
0.0
0
VERTEX
5
1aab
8
Layer1
10
100.0000
20
94.0000
30
0.0
0
VERTEX
5
1aac
8
Layer1
10
99.2000
20
94.0000
30
0.0
0
VERTEX
5
1aad
8
Layer1
10
99.2000
20
82.0000
30
0.0
0
VERTEX
5
1aae
8
Layer1
10
100.0000
20
82.0000
30
0.0
0
VERTEX
5
1aaf
8
Layer1
10
100.0000
20
81.0000
30
0.0
0
VERTEX
5
1ab0
8
Layer1
10
114.0000
20
81.0000
30
0.0
0
VERTEX
5
1ab1
8
Layer1
10
114.0000
20
82.0000
30
0.0
0
SEQEND
5
1ab2
8
Layer1
0
POLYLINE
5
1ab3
8
Layer1
66
1
10
0.0
20
0.0
30
0.0
70
1
0
VERTEX
5
1ab4
8
Layer1
10
133.0000
20
82.0000
30
0.0
0
VERTEX
5
1ab5
8
Layer1
10
133.8000
20
82.0000
30
0.0
0
VERTEX
5
1ab6
8
Layer1
10
133.8000
20
94.0000
30
0.0
0
VERTEX
5
1ab7
8
Layer1
10
133.0000
20
94.0000
30
0.0
0
VERTEX
5
1ab8
8
Layer1
10
133.0000
20
95.0000
30
0.0
0
VERTEX
5
1ab9
8
Layer1
10
119.0000
20
95.0000
30
0.0
0
VERTEX
5
1aba
8
Layer1
10
119.0000
20
94.0000
30
0.0
0
VERTEX
5
1abb
8
Layer1
10
118.2000
20
94.0000
30
0.0
0
VERTEX
5
1abc
8
Layer1
10
118.2000
20
82.0000
30
0.0
0
VERTEX
5
1abd
8
Layer1
10
119.0000
20
82.0000
30
0.0
0
VERTEX
5
1abe
8
Layer1
10
119.0000
20
81.0000
30
0.0
0
VERTEX
5
1abf
8
Layer1
10
133.0000
20
81.0000
30
0.0
0
VERTEX
5
1ac0
8
Layer1
10
133.0000
20
82.0000
30
0.0
0
SEQEND
5
1ac1
8
Layer1
0
POLYLINE
5
1ac2
8
Layer1
66
1
10
0.0
20
0.0
30
0.0
70
1
0
VERTEX
5
1ac3
8
Layer1
10
152.0000
20
82.0000
30
0.0
0
VERTEX
5
1ac4
8
Layer1
10
152.8000
20
82.0000
30
0.0
0
VERTEX
5
1ac5
8
Layer1
10
152.8000
20
94.0000
30
0.0
0
VERTEX
5
1ac6
8
Layer1
10
152.0000
20
94.0000
30
0.0
0
VERTEX
5
1ac7
8
Layer1
10
152.0000
20
95.0000
30
0.0
0
VERTEX
5
1ac8
8
Layer1
10
138.0000
20
95.0000
30
0.0
0
VERTEX
5
1ac9
8
Layer1
10
138.0000
20
94.0000
30
0.0
0
VERTEX
5
1aca
8
Layer1
10
137.2000
20
94.0000
30
0.0
0
VERTEX
5
1acb
8
Layer1
10
137.2000
20
82.0000
30
0.0
0
VERTEX
5
1acc
8
Layer1
10
138.0000
20
82.0000
30
0.0
0
VERTEX
5
1acd
8
Layer1
10
138.0000
20
81.0000
30
0.0
0
VERTEX
5
1ace
8
Layer1
10
152.0000
20
81.0000
30
0.0
0
VERTEX
5
1acf
8
Layer1
10
152.0000
20
82.0000
30
0.0
0
SEQEND
5
1ad0
8
Layer1
0
POLYLINE
5
1ad1
8
Layer1
66
1
10
0.0
20
0.0
30
0.0
70
1
0
VERTEX
5
1ad2
8
Layer1
10
171.0000
20
82.0000
30
0.0
0
VERTEX
5
1ad3
8
Layer1
10
171.8000
20
82.0000
30
0.0
0
VERTEX
5
1ad4
8
Layer1
10
171.8000
20
94.0000
30
0.0
0
VERTEX
5
1ad5
8
Layer1
10
171.0000
20
94.0000
30
0.0
0
VERTEX
5
1ad6
8
Layer1
10
171.0000
20
95.0000
30
0.0
0
VERTEX
5
1ad7
8
Layer1
10
157.0000
20
95.0000
30
0.0
0
VERTEX
5
1ad8
8
Layer1
10
157.0000
20
94.0000
30
0.0
0
VERTEX
5
1ad9
8
Layer1
10
156.2000
20
94.0000
30
0.0
0
VERTEX
5
1ada
8
Layer1
10
156.2000
20
82.0000
30
0.0
0
VERTEX
5
1adb
8
Layer1
10
157.0000
20
82.0000
30
0.0
0
VERTEX
5
1adc
8
Layer1
10
157.0000
20
81.0000
30
0.0
0
VERTEX
5
1add
8
Layer1
10
171.0000
20
81.0000
30
0.0
0
VERTEX
5
1ade
8
Layer1
10
171.0000
20
82.0000
30
0.0
0
SEQEND
5
1adf
8
Layer1
0
POLYLINE
5
1ae0
8
Layer1
66
1
10
0.0
20
0.0
30
0.0
70
1
0
VERTEX
5
1ae1
8
Layer1
10
190.0000
20
82.0000
30
0.0
0
VERTEX
5
1ae2
8
Layer1
10
190.8000
20
82.0000
30
0.0
0
VERTEX
5
1ae3
8
Layer1
10
190.8000
20
94.0000
30
0.0
0
VERTEX
5
1ae4
8
Layer1
10
190.0000
20
94.0000
30
0.0
0
VERTEX
5
1ae5
8
Layer1
10
190.0000
20
95.0000
30
0.0
0
VERTEX
5
1ae6
8
Layer1
10
176.0000
20
95.0000
30
0.0
0
VERTEX
5
1ae7
8
Layer1
10
176.0000
20
94.0000
30
0.0
0
VERTEX
5
1ae8
8
Layer1
10
175.2000
20
94.0000
30
0.0
0
VERTEX
5
1ae9
8
Layer1
10
175.2000
20
82.0000
30
0.0
0
VERTEX
5
1aea
8
Layer1
10
176.0000
20
82.0000
30
0.0
0
VERTEX
5
1aeb
8
Layer1
10
176.0000
20
81.0000
30
0.0
0
VERTEX
5
1aec
8
Layer1
10
190.0000
20
81.0000
30
0.0
0
VERTEX
5
1aed
8
Layer1
10
190.0000
20
82.0000
30
0.0
0
SEQEND
5
1aee
8
Layer1
0
POLYLINE
5
1aef
8
Layer1
66
1
10
0.0
20
0.0
30
0.0
70
1
0
VERTEX
5
1af0
8
Layer1
10
209.0000
20
82.0000
30
0.0
0
VERTEX
5
1af1
8
Layer1
10
209.8000
20
82.0000
30
0.0
0
VERTEX
5
1af2
8
Layer1
10
209.8000
20
94.0000
30
0.0
0
VERTEX
5
1af3
8
Layer1
10
209.0000
20
94.0000
30
0.0
0
VERTEX
5
1af4
8
Layer1
10
209.0000
20
95.0000
30
0.0
0
VERTEX
5
1af5
8
Layer1
10
195.0000
20
95.0000
30
0.0
0
VERTEX
5
1af6
8
Layer1
10
195.0000
20
94.0000
30
0.0
0
VERTEX
5
1af7
8
Layer1
10
194.2000
20
94.0000
30
0.0
0
VERTEX
5
1af8
8
Layer1
10
194.2000
20
82.0000
30
0.0
0
VERTEX
5
1af9
8
Layer1
10
195.0000
20
82.0000
30
0.0
0
VERTEX
5
1afa
8
Layer1
10
195.0000
20
81.0000
30
0.0
0
VERTEX
5
1afb
8
Layer1
10
209.0000
20
81.0000
30
0.0
0
VERTEX
5
1afc
8
Layer1
10
209.0000
20
82.0000
30
0.0
0
SEQEND
5
1afd
8
Layer1
0
POLYLINE
5
1afe
8
Layer1
66
1
10
0.0
20
0.0
30
0.0
70
1
0
VERTEX
5
1aff
8
Layer1
10
228.0000
20
82.0000
30
0.0
0
VERTEX
5
1b00
8
Layer1
10
228.8000
20
82.0000
30
0.0
0
VERTEX
5
1b01
8
Layer1
10
228.8000
20
94.0000
30
0.0
0
VERTEX
5
1b02
8
Layer1
10
228.0000
20
94.0000
30
0.0
0
VERTEX
5
1b03
8
Layer1
10
228.0000
20
95.0000
30
0.0
0
VERTEX
5
1b04
8
Layer1
10
214.0000
20
95.0000
30
0.0
0
VERTEX
5
1b05
8
Layer1
10
214.0000
20
94.0000
30
0.0
0
VERTEX
5
1b06
8
Layer1
10
213.2000
20
94.0000
30
0.0
0
VERTEX
5
1b07
8
Layer1
10
213.2000
20
82.0000
30
0.0
0
VERTEX
5
1b08
8
Layer1
10
214.0000
20
82.0000
30
0.0
0
VERTEX
5
1b09
8
Layer1
10
214.0000
20
81.0000
30
0.0
0
VERTEX
5
1b0a
8
Layer1
10
228.0000
20
81.0000
30
0.0
0
VERTEX
5
1b0b
8
Layer1
10
228.0000
20
82.0000
30
0.0
0
SEQEND
5
1b0c
8
Layer1
0
POLYLINE
5
1b0d
8
Layer1
66
1
10
0.0
20
0.0
30
0.0
70
1
0
VERTEX
5
1b0e
8
Layer1
10
247.0000
20
82.0000
30
0.0
0
VERTEX
5
1b0f
8
Layer1
10
247.8000
20
82.0000
30
0.0
0
VERTEX
5
1b10
8
Layer1
10
247.8000
20
94.0000
30
0.0
0
VERTEX
5
1b11
8
Layer1
10
247.0000
20
94.0000
30
0.0
0
VERTEX
5
1b12
8
Layer1
10
247.0000
20
95.0000
30
0.0
0
VERTEX
5
1b13
8
Layer1
10
233.0000
20
95.0000
30
0.0
0
VERTEX
5
1b14
8
Layer1
10
233.0000
20
94.0000
30
0.0
0
VERTEX
5
1b15
8
Layer1
10
232.2000
20
94.0000
30
0.0
0
VERTEX
5
1b16
8
Layer1
10
232.2000
20
82.0000
30
0.0
0
VERTEX
5
1b17
8
Layer1
10
233.0000
20
82.0000
30
0.0
0
VERTEX
5
1b18
8
Layer1
10
233.0000
20
81.0000
30
0.0
0
VERTEX
5
1b19
8
Layer1
10
247.0000
20
81.0000
30
0.0
0
VERTEX
5
1b1a
8
Layer1
10
247.0000
20
82.0000
30
0.0
0
SEQEND
5
1b1b
8
Layer1
0
POLYLINE
5
1b1c
8
Layer1
66
1
10
0.0
20
0.0
30
0.0
70
1
0
VERTEX
5
1b1d
8
Layer1
10
270.7500
20
82.0000
30
0.0
0
VERTEX
5
1b1e
8
Layer1
10
271.5500
20
82.0000
30
0.0
0
VERTEX
5
1b1f
8
Layer1
10
271.5500
20
94.0000
30
0.0
0
VERTEX
5
1b20
8
Layer1
10
270.7500
20
94.0000
30
0.0
0
VERTEX
5
1b21
8
Layer1
10
270.7500
20
95.0000
30
0.0
0
VERTEX
5
1b22
8
Layer1
10
256.7500
20
95.0000
30
0.0
0
VERTEX
5
1b23
8
Layer1
10
256.7500
20
94.0000
30
0.0
0
VERTEX
5
1b24
8
Layer1
10
255.9500
20
94.0000
30
0.0
0
VERTEX
5
1b25
8
Layer1
10
255.9500
20
82.0000
30
0.0
0
VERTEX
5
1b26
8
Layer1
10
256.7500
20
82.0000
30
0.0
0
VERTEX
5
1b27
8
Layer1
10
256.7500
20
81.0000
30
0.0
0
VERTEX
5
1b28
8
Layer1
10
270.7500
20
81.0000
30
0.0
0
VERTEX
5
1b29
8
Layer1
10
270.7500
20
82.0000
30
0.0
0
SEQEND
5
1b2a
8
Layer1
0
POLYLINE
5
1b2b
8
Layer1
66
1
10
0.0
20
0.0
30
0.0
70
1
0
VERTEX
5
1b2c
8
Layer1
10
21.3750
20
63.0000
30
0.0
0
VERTEX
5
1b2d
8
Layer1
10
22.1750
20
63.0000
30
0.0
0
VERTEX
5
1b2e
8
Layer1
10
22.1750
20
75.0000
30
0.0
0
VERTEX
5
1b2f
8
Layer1
10
21.3750
20
75.0000
30
0.0
0
VERTEX
5
1b30
8
Layer1
10
21.3750
20
76.0000
30
0.0
0
VERTEX
5
1b31
8
Layer1
10
7.3750
20
76.0000
30
0.0
0
VERTEX
5
1b32
8
Layer1
10
7.3750
20
75.0000
30
0.0
0
VERTEX
5
1b33
8
Layer1
10
6.5750
20
75.0000
30
0.0
0
VERTEX
5
1b34
8
Layer1
10
6.5750
20
63.0000
30
0.0
0
VERTEX
5
1b35
8
Layer1
10
7.3750
20
63.0000
30
0.0
0
VERTEX
5
1b36
8
Layer1
10
7.3750
20
62.0000
30
0.0
0
VERTEX
5
1b37
8
Layer1
10
21.3750
20
62.0000
30
0.0
0
VERTEX
5
1b38
8
Layer1
10
21.3750
20
63.0000
30
0.0
0
SEQEND
5
1b39
8
Layer1
0
POLYLINE
5
1b3a
8
Layer1
66
1
10
0.0
20
0.0
30
0.0
70
1
0
VERTEX
5
1b3b
8
Layer1
10
42.7500
20
63.0000
30
0.0
0
VERTEX
5
1b3c
8
Layer1
10
43.5500
20
63.0000
30
0.0
0
VERTEX
5
1b3d
8
Layer1
10
43.5500
20
75.0000
30
0.0
0
VERTEX
5
1b3e
8
Layer1
10
42.7500
20
75.0000
30
0.0
0
VERTEX
5
1b3f
8
Layer1
10
42.7500
20
76.0000
30
0.0
0
VERTEX
5
1b40
8
Layer1
10
28.7500
20
76.0000
30
0.0
0
VERTEX
5
1b41
8
Layer1
10
28.7500
20
75.0000
30
0.0
0
VERTEX
5
1b42
8
Layer1
10
27.9500
20
75.0000
30
0.0
0
VERTEX
5
1b43
8
Layer1
10
27.9500
20
63.0000
30
0.0
0
VERTEX
5
1b44
8
Layer1
10
28.7500
20
63.0000
30
0.0
0
VERTEX
5
1b45
8
Layer1
10
28.7500
20
62.0000
30
0.0
0
VERTEX
5
1b46
8
Layer1
10
42.7500
20
62.0000
30
0.0
0
VERTEX
5
1b47
8
Layer1
10
42.7500
20
63.0000
30
0.0
0
SEQEND
5
1b48
8
Layer1
0
POLYLINE
5
1b49
8
Layer1
66
1
10
0.0
20
0.0
30
0.0
70
1
0
VERTEX
5
1b4a
8
Layer1
10
61.7500
20
63.0000
30
0.0
0
VERTEX
5
1b4b
8
Layer1
10
62.5500
20
63.0000
30
0.0
0
VERTEX
5
1b4c
8
Layer1
10
62.5500
20
75.0000
30
0.0
0
VERTEX
5
1b4d
8
Layer1
10
61.7500
20
75.0000
30
0.0
0
VERTEX
5
1b4e
8
Layer1
10
61.7500
20
76.0000
30
0.0
0
VERTEX
5
1b4f
8
Layer1
10
47.7500
20
76.0000
30
0.0
0
VERTEX
5
1b50
8
Layer1
10
47.7500
20
75.0000
30
0.0
0
VERTEX
5
1b51
8
Layer1
10
46.9500
20
75.0000
30
0.0
0
VERTEX
5
1b52
8
Layer1
10
46.9500
20
63.0000
30
0.0
0
VERTEX
5
1b53
8
Layer1
10
47.7500
20
63.0000
30
0.0
0
VERTEX
5
1b54
8
Layer1
10
47.7500
20
62.0000
30
0.0
0
VERTEX
5
1b55
8
Layer1
10
61.7500
20
62.0000
30
0.0
0
VERTEX
5
1b56
8
Layer1
10
61.7500
20
63.0000
30
0.0
0
SEQEND
5
1b57
8
Layer1
0
POLYLINE
5
1b58
8
Layer1
66
1
10
0.0
20
0.0
30
0.0
70
1
0
VERTEX
5
1b59
8
Layer1
10
80.7500
20
63.0000
30
0.0
0
VERTEX
5
1b5a
8
Layer1
10
81.5500
20
63.0000
30
0.0
0
VERTEX
5
1b5b
8
Layer1
10
81.5500
20
75.0000
30
0.0
0
VERTEX
5
1b5c
8
Layer1
10
80.7500
20
75.0000
30
0.0
0
VERTEX
5
1b5d
8
Layer1
10
80.7500
20
76.0000
30
0.0
0
VERTEX
5
1b5e
8
Layer1
10
66.7500
20
76.0000
30
0.0
0
VERTEX
5
1b5f
8
Layer1
10
66.7500
20
75.0000
30
0.0
0
VERTEX
5
1b60
8
Layer1
10
65.9500
20
75.0000
30
0.0
0
VERTEX
5
1b61
8
Layer1
10
65.9500
20
63.0000
30
0.0
0
VERTEX
5
1b62
8
Layer1
10
66.7500
20
63.0000
30
0.0
0
VERTEX
5
1b63
8
Layer1
10
66.7500
20
62.0000
30
0.0
0
VERTEX
5
1b64
8
Layer1
10
80.7500
20
62.0000
30
0.0
0
VERTEX
5
1b65
8
Layer1
10
80.7500
20
63.0000
30
0.0
0
SEQEND
5
1b66
8
Layer1
0
POLYLINE
5
1b67
8
Layer1
66
1
10
0.0
20
0.0
30
0.0
70
1
0
VERTEX
5
1b68
8
Layer1
10
99.7500
20
63.0000
30
0.0
0
VERTEX
5
1b69
8
Layer1
10
100.5500
20
63.0000
30
0.0
0
VERTEX
5
1b6a
8
Layer1
10
100.5500
20
75.0000
30
0.0
0
VERTEX
5
1b6b
8
Layer1
10
99.7500
20
75.0000
30
0.0
0
VERTEX
5
1b6c
8
Layer1
10
99.7500
20
76.0000
30
0.0
0
VERTEX
5
1b6d
8
Layer1
10
85.7500
20
76.0000
30
0.0
0
VERTEX
5
1b6e
8
Layer1
10
85.7500
20
75.0000
30
0.0
0
VERTEX
5
1b6f
8
Layer1
10
84.9500
20
75.0000
30
0.0
0
VERTEX
5
1b70
8
Layer1
10
84.9500
20
63.0000
30
0.0
0
VERTEX
5
1b71
8
Layer1
10
85.7500
20
63.0000
30
0.0
0
VERTEX
5
1b72
8
Layer1
10
85.7500
20
62.0000
30
0.0
0
VERTEX
5
1b73
8
Layer1
10
99.7500
20
62.0000
30
0.0
0
VERTEX
5
1b74
8
Layer1
10
99.7500
20
63.0000
30
0.0
0
SEQEND
5
1b75
8
Layer1
0
POLYLINE
5
1b76
8
Layer1
66
1
10
0.0
20
0.0
30
0.0
70
1
0
VERTEX
5
1b77
8
Layer1
10
118.7500
20
63.0000
30
0.0
0
VERTEX
5
1b78
8
Layer1
10
119.5500
20
63.0000
30
0.0
0
VERTEX
5
1b79
8
Layer1
10
119.5500
20
75.0000
30
0.0
0
VERTEX
5
1b7a
8
Layer1
10
118.7500
20
75.0000
30
0.0
0
VERTEX
5
1b7b
8
Layer1
10
118.7500
20
76.0000
30
0.0
0
VERTEX
5
1b7c
8
Layer1
10
104.7500
20
76.0000
30
0.0
0
VERTEX
5
1b7d
8
Layer1
10
104.7500
20
75.0000
30
0.0
0
VERTEX
5
1b7e
8
Layer1
10
103.9500
20
75.0000
30
0.0
0
VERTEX
5
1b7f
8
Layer1
10
103.9500
20
63.0000
30
0.0
0
VERTEX
5
1b80
8
Layer1
10
104.7500
20
63.0000
30
0.0
0
VERTEX
5
1b81
8
Layer1
10
104.7500
20
62.0000
30
0.0
0
VERTEX
5
1b82
8
Layer1
10
118.7500
20
62.0000
30
0.0
0
VERTEX
5
1b83
8
Layer1
10
118.7500
20
63.0000
30
0.0
0
SEQEND
5
1b84
8
Layer1
0
POLYLINE
5
1b85
8
Layer1
66
1
10
0.0
20
0.0
30
0.0
70
1
0
VERTEX
5
1b86
8
Layer1
10
137.7500
20
63.0000
30
0.0
0
VERTEX
5
1b87
8
Layer1
10
138.5500
20
63.0000
30
0.0
0
VERTEX
5
1b88
8
Layer1
10
138.5500
20
75.0000
30
0.0
0
VERTEX
5
1b89
8
Layer1
10
137.7500
20
75.0000
30
0.0
0
VERTEX
5
1b8a
8
Layer1
10
137.7500
20
76.0000
30
0.0
0
VERTEX
5
1b8b
8
Layer1
10
123.7500
20
76.0000
30
0.0
0
VERTEX
5
1b8c
8
Layer1
10
123.7500
20
75.0000
30
0.0
0
VERTEX
5
1b8d
8
Layer1
10
122.9500
20
75.0000
30
0.0
0
VERTEX
5
1b8e
8
Layer1
10
122.9500
20
63.0000
30
0.0
0
VERTEX
5
1b8f
8
Layer1
10
123.7500
20
63.0000
30
0.0
0
VERTEX
5
1b90
8
Layer1
10
123.7500
20
62.0000
30
0.0
0
VERTEX
5
1b91
8
Layer1
10
137.7500
20
62.0000
30
0.0
0
VERTEX
5
1b92
8
Layer1
10
137.7500
20
63.0000
30
0.0
0
SEQEND
5
1b93
8
Layer1
0
POLYLINE
5
1b94
8
Layer1
66
1
10
0.0
20
0.0
30
0.0
70
1
0
VERTEX
5
1b95
8
Layer1
10
156.7500
20
63.0000
30
0.0
0
VERTEX
5
1b96
8
Layer1
10
157.5500
20
63.0000
30
0.0
0
VERTEX
5
1b97
8
Layer1
10
157.5500
20
75.0000
30
0.0
0
VERTEX
5
1b98
8
Layer1
10
156.7500
20
75.0000
30
0.0
0
VERTEX
5
1b99
8
Layer1
10
156.7500
20
76.0000
30
0.0
0
VERTEX
5
1b9a
8
Layer1
10
142.7500
20
76.0000
30
0.0
0
VERTEX
5
1b9b
8
Layer1
10
142.7500
20
75.0000
30
0.0
0
VERTEX
5
1b9c
8
Layer1
10
141.9500
20
75.0000
30
0.0
0
VERTEX
5
1b9d
8
Layer1
10
141.9500
20
63.0000
30
0.0
0
VERTEX
5
1b9e
8
Layer1
10
142.7500
20
63.0000
30
0.0
0
VERTEX
5
1b9f
8
Layer1
10
142.7500
20
62.0000
30
0.0
0
VERTEX
5
1ba0
8
Layer1
10
156.7500
20
62.0000
30
0.0
0
VERTEX
5
1ba1
8
Layer1
10
156.7500
20
63.0000
30
0.0
0
SEQEND
5
1ba2
8
Layer1
0
POLYLINE
5
1ba3
8
Layer1
66
1
10
0.0
20
0.0
30
0.0
70
1
0
VERTEX
5
1ba4
8
Layer1
10
175.7500
20
63.0000
30
0.0
0
VERTEX
5
1ba5
8
Layer1
10
176.5500
20
63.0000
30
0.0
0
VERTEX
5
1ba6
8
Layer1
10
176.5500
20
75.0000
30
0.0
0
VERTEX
5
1ba7
8
Layer1
10
175.7500
20
75.0000
30
0.0
0
VERTEX
5
1ba8
8
Layer1
10
175.7500
20
76.0000
30
0.0
0
VERTEX
5
1ba9
8
Layer1
10
161.7500
20
76.0000
30
0.0
0
VERTEX
5
1baa
8
Layer1
10
161.7500
20
75.0000
30
0.0
0
VERTEX
5
1bab
8
Layer1
10
160.9500
20
75.0000
30
0.0
0
VERTEX
5
1bac
8
Layer1
10
160.9500
20
63.0000
30
0.0
0
VERTEX
5
1bad
8
Layer1
10
161.7500
20
63.0000
30
0.0
0
VERTEX
5
1bae
8
Layer1
10
161.7500
20
62.0000
30
0.0
0
VERTEX
5
1baf
8
Layer1
10
175.7500
20
62.0000
30
0.0
0
VERTEX
5
1bb0
8
Layer1
10
175.7500
20
63.0000
30
0.0
0
SEQEND
5
1bb1
8
Layer1
0
POLYLINE
5
1bb2
8
Layer1
66
1
10
0.0
20
0.0
30
0.0
70
1
0
VERTEX
5
1bb3
8
Layer1
10
194.7500
20
63.0000
30
0.0
0
VERTEX
5
1bb4
8
Layer1
10
195.5500
20
63.0000
30
0.0
0
VERTEX
5
1bb5
8
Layer1
10
195.5500
20
75.0000
30
0.0
0
VERTEX
5
1bb6
8
Layer1
10
194.7500
20
75.0000
30
0.0
0
VERTEX
5
1bb7
8
Layer1
10
194.7500
20
76.0000
30
0.0
0
VERTEX
5
1bb8
8
Layer1
10
180.7500
20
76.0000
30
0.0
0
VERTEX
5
1bb9
8
Layer1
10
180.7500
20
75.0000
30
0.0
0
VERTEX
5
1bba
8
Layer1
10
179.9500
20
75.0000
30
0.0
0
VERTEX
5
1bbb
8
Layer1
10
179.9500
20
63.0000
30
0.0
0
VERTEX
5
1bbc
8
Layer1
10
180.7500
20
63.0000
30
0.0
0
VERTEX
5
1bbd
8
Layer1
10
180.7500
20
62.0000
30
0.0
0
VERTEX
5
1bbe
8
Layer1
10
194.7500
20
62.0000
30
0.0
0
VERTEX
5
1bbf
8
Layer1
10
194.7500
20
63.0000
30
0.0
0
SEQEND
5
1bc0
8
Layer1
0
POLYLINE
5
1bc1
8
Layer1
66
1
10
0.0
20
0.0
30
0.0
70
1
0
VERTEX
5
1bc2
8
Layer1
10
213.7500
20
63.0000
30
0.0
0
VERTEX
5
1bc3
8
Layer1
10
214.5500
20
63.0000
30
0.0
0
VERTEX
5
1bc4
8
Layer1
10
214.5500
20
75.0000
30
0.0
0
VERTEX
5
1bc5
8
Layer1
10
213.7500
20
75.0000
30
0.0
0
VERTEX
5
1bc6
8
Layer1
10
213.7500
20
76.0000
30
0.0
0
VERTEX
5
1bc7
8
Layer1
10
199.7500
20
76.0000
30
0.0
0
VERTEX
5
1bc8
8
Layer1
10
199.7500
20
75.0000
30
0.0
0
VERTEX
5
1bc9
8
Layer1
10
198.9500
20
75.0000
30
0.0
0
VERTEX
5
1bca
8
Layer1
10
198.9500
20
63.0000
30
0.0
0
VERTEX
5
1bcb
8
Layer1
10
199.7500
20
63.0000
30
0.0
0
VERTEX
5
1bcc
8
Layer1
10
199.7500
20
62.0000
30
0.0
0
VERTEX
5
1bcd
8
Layer1
10
213.7500
20
62.0000
30
0.0
0
VERTEX
5
1bce
8
Layer1
10
213.7500
20
63.0000
30
0.0
0
SEQEND
5
1bcf
8
Layer1
0
POLYLINE
5
1bd0
8
Layer1
66
1
10
0.0
20
0.0
30
0.0
70
1
0
VERTEX
5
1bd1
8
Layer1
10
232.7500
20
63.0000
30
0.0
0
VERTEX
5
1bd2
8
Layer1
10
233.5500
20
63.0000
30
0.0
0
VERTEX
5
1bd3
8
Layer1
10
233.5500
20
75.0000
30
0.0
0
VERTEX
5
1bd4
8
Layer1
10
232.7500
20
75.0000
30
0.0
0
VERTEX
5
1bd5
8
Layer1
10
232.7500
20
76.0000
30
0.0
0
VERTEX
5
1bd6
8
Layer1
10
218.7500
20
76.0000
30
0.0
0
VERTEX
5
1bd7
8
Layer1
10
218.7500
20
75.0000
30
0.0
0
VERTEX
5
1bd8
8
Layer1
10
217.9500
20
75.0000
30
0.0
0
VERTEX
5
1bd9
8
Layer1
10
217.9500
20
63.0000
30
0.0
0
VERTEX
5
1bda
8
Layer1
10
218.7500
20
63.0000
30
0.0
0
VERTEX
5
1bdb
8
Layer1
10
218.7500
20
62.0000
30
0.0
0
VERTEX
5
1bdc
8
Layer1
10
232.7500
20
62.0000
30
0.0
0
VERTEX
5
1bdd
8
Layer1
10
232.7500
20
63.0000
30
0.0
0
SEQEND
5
1bde
8
Layer1
0
POLYLINE
5
1bdf
8
Layer1
66
1
10
0.0
20
0.0
30
0.0
70
1
0
VERTEX
5
1be0
8
Layer1
10
251.7500
20
63.0000
30
0.0
0
VERTEX
5
1be1
8
Layer1
10
252.5500
20
63.0000
30
0.0
0
VERTEX
5
1be2
8
Layer1
10
252.5500
20
75.0000
30
0.0
0
VERTEX
5
1be3
8
Layer1
10
251.7500
20
75.0000
30
0.0
0
VERTEX
5
1be4
8
Layer1
10
251.7500
20
76.0000
30
0.0
0
VERTEX
5
1be5
8
Layer1
10
237.7500
20
76.0000
30
0.0
0
VERTEX
5
1be6
8
Layer1
10
237.7500
20
75.0000
30
0.0
0
VERTEX
5
1be7
8
Layer1
10
236.9500
20
75.0000
30
0.0
0
VERTEX
5
1be8
8
Layer1
10
236.9500
20
63.0000
30
0.0
0
VERTEX
5
1be9
8
Layer1
10
237.7500
20
63.0000
30
0.0
0
VERTEX
5
1bea
8
Layer1
10
237.7500
20
62.0000
30
0.0
0
VERTEX
5
1beb
8
Layer1
10
251.7500
20
62.0000
30
0.0
0
VERTEX
5
1bec
8
Layer1
10
251.7500
20
63.0000
30
0.0
0
SEQEND
5
1bed
8
Layer1
0
POLYLINE
5
1bee
8
Layer1
66
1
10
0.0
20
0.0
30
0.0
70
1
0
VERTEX
5
1bef
8
Layer1
10
273.1250
20
63.0000
30
0.0
0
VERTEX
5
1bf0
8
Layer1
10
273.9250
20
63.0000
30
0.0
0
VERTEX
5
1bf1
8
Layer1
10
273.9250
20
75.0000
30
0.0
0
VERTEX
5
1bf2
8
Layer1
10
273.1250
20
75.0000
30
0.0
0
VERTEX
5
1bf3
8
Layer1
10
273.1250
20
76.0000
30
0.0
0
VERTEX
5
1bf4
8
Layer1
10
259.1250
20
76.0000
30
0.0
0
VERTEX
5
1bf5
8
Layer1
10
259.1250
20
75.0000
30
0.0
0
VERTEX
5
1bf6
8
Layer1
10
258.3250
20
75.0000
30
0.0
0
VERTEX
5
1bf7
8
Layer1
10
258.3250
20
63.0000
30
0.0
0
VERTEX
5
1bf8
8
Layer1
10
259.1250
20
63.0000
30
0.0
0
VERTEX
5
1bf9
8
Layer1
10
259.1250
20
62.0000
30
0.0
0
VERTEX
5
1bfa
8
Layer1
10
273.1250
20
62.0000
30
0.0
0
VERTEX
5
1bfb
8
Layer1
10
273.1250
20
63.0000
30
0.0
0
SEQEND
5
1bfc
8
Layer1
0
POLYLINE
5
1bfd
8
Layer1
66
1
10
0.0
20
0.0
30
0.0
70
1
0
VERTEX
5
1bfe
8
Layer1
10
23.7500
20
44.0000
30
0.0
0
VERTEX
5
1bff
8
Layer1
10
24.5500
20
44.0000
30
0.0
0
VERTEX
5
1c00
8
Layer1
10
24.5500
20
56.0000
30
0.0
0
VERTEX
5
1c01
8
Layer1
10
23.7500
20
56.0000
30
0.0
0
VERTEX
5
1c02
8
Layer1
10
23.7500
20
57.0000
30
0.0
0
VERTEX
5
1c03
8
Layer1
10
9.7500
20
57.0000
30
0.0
0
VERTEX
5
1c04
8
Layer1
10
9.7500
20
56.0000
30
0.0
0
VERTEX
5
1c05
8
Layer1
10
8.9500
20
56.0000
30
0.0
0
VERTEX
5
1c06
8
Layer1
10
8.9500
20
44.0000
30
0.0
0
VERTEX
5
1c07
8
Layer1
10
9.7500
20
44.0000
30
0.0
0
VERTEX
5
1c08
8
Layer1
10
9.7500
20
43.0000
30
0.0
0
VERTEX
5
1c09
8
Layer1
10
23.7500
20
43.0000
30
0.0
0
VERTEX
5
1c0a
8
Layer1
10
23.7500
20
44.0000
30
0.0
0
SEQEND
5
1c0b
8
Layer1
0
POLYLINE
5
1c0c
8
Layer1
66
1
10
0.0
20
0.0
30
0.0
70
1
0
VERTEX
5
1c0d
8
Layer1
10
47.5000
20
44.0000
30
0.0
0
VERTEX
5
1c0e
8
Layer1
10
48.3000
20
44.0000
30
0.0
0
VERTEX
5
1c0f
8
Layer1
10
48.3000
20
56.0000
30
0.0
0
VERTEX
5
1c10
8
Layer1
10
47.5000
20
56.0000
30
0.0
0
VERTEX
5
1c11
8
Layer1
10
47.5000
20
57.0000
30
0.0
0
VERTEX
5
1c12
8
Layer1
10
33.5000
20
57.0000
30
0.0
0
VERTEX
5
1c13
8
Layer1
10
33.5000
20
56.0000
30
0.0
0
VERTEX
5
1c14
8
Layer1
10
32.7000
20
56.0000
30
0.0
0
VERTEX
5
1c15
8
Layer1
10
32.7000
20
44.0000
30
0.0
0
VERTEX
5
1c16
8
Layer1
10
33.5000
20
44.0000
30
0.0
0
VERTEX
5
1c17
8
Layer1
10
33.5000
20
43.0000
30
0.0
0
VERTEX
5
1c18
8
Layer1
10
47.5000
20
43.0000
30
0.0
0
VERTEX
5
1c19
8
Layer1
10
47.5000
20
44.0000
30
0.0
0
SEQEND
5
1c1a
8
Layer1
0
POLYLINE
5
1c1b
8
Layer1
66
1
10
0.0
20
0.0
30
0.0
70
1
0
VERTEX
5
1c1c
8
Layer1
10
66.5000
20
44.0000
30
0.0
0
VERTEX
5
1c1d
8
Layer1
10
67.3000
20
44.0000
30
0.0
0
VERTEX
5
1c1e
8
Layer1
10
67.3000
20
56.0000
30
0.0
0
VERTEX
5
1c1f
8
Layer1
10
66.5000
20
56.0000
30
0.0
0
VERTEX
5
1c20
8
Layer1
10
66.5000
20
57.0000
30
0.0
0
VERTEX
5
1c21
8
Layer1
10
52.5000
20
57.0000
30
0.0
0
VERTEX
5
1c22
8
Layer1
10
52.5000
20
56.0000
30
0.0
0
VERTEX
5
1c23
8
Layer1
10
51.7000
20
56.0000
30
0.0
0
VERTEX
5
1c24
8
Layer1
10
51.7000
20
44.0000
30
0.0
0
VERTEX
5
1c25
8
Layer1
10
52.5000
20
44.0000
30
0.0
0
VERTEX
5
1c26
8
Layer1
10
52.5000
20
43.0000
30
0.0
0
VERTEX
5
1c27
8
Layer1
10
66.5000
20
43.0000
30
0.0
0
VERTEX
5
1c28
8
Layer1
10
66.5000
20
44.0000
30
0.0
0
SEQEND
5
1c29
8
Layer1
0
POLYLINE
5
1c2a
8
Layer1
66
1
10
0.0
20
0.0
30
0.0
70
1
0
VERTEX
5
1c2b
8
Layer1
10
85.5000
20
44.0000
30
0.0
0
VERTEX
5
1c2c
8
Layer1
10
86.3000
20
44.0000
30
0.0
0
VERTEX
5
1c2d
8
Layer1
10
86.3000
20
56.0000
30
0.0
0
VERTEX
5
1c2e
8
Layer1
10
85.5000
20
56.0000
30
0.0
0
VERTEX
5
1c2f
8
Layer1
10
85.5000
20
57.0000
30
0.0
0
VERTEX
5
1c30
8
Layer1
10
71.5000
20
57.0000
30
0.0
0
VERTEX
5
1c31
8
Layer1
10
71.5000
20
56.0000
30
0.0
0
VERTEX
5
1c32
8
Layer1
10
70.7000
20
56.0000
30
0.0
0
VERTEX
5
1c33
8
Layer1
10
70.7000
20
44.0000
30
0.0
0
VERTEX
5
1c34
8
Layer1
10
71.5000
20
44.0000
30
0.0
0
VERTEX
5
1c35
8
Layer1
10
71.5000
20
43.0000
30
0.0
0
VERTEX
5
1c36
8
Layer1
10
85.5000
20
43.0000
30
0.0
0
VERTEX
5
1c37
8
Layer1
10
85.5000
20
44.0000
30
0.0
0
SEQEND
5
1c38
8
Layer1
0
POLYLINE
5
1c39
8
Layer1
66
1
10
0.0
20
0.0
30
0.0
70
1
0
VERTEX
5
1c3a
8
Layer1
10
104.5000
20
44.0000
30
0.0
0
VERTEX
5
1c3b
8
Layer1
10
105.3000
20
44.0000
30
0.0
0
VERTEX
5
1c3c
8
Layer1
10
105.3000
20
56.0000
30
0.0
0
VERTEX
5
1c3d
8
Layer1
10
104.5000
20
56.0000
30
0.0
0
VERTEX
5
1c3e
8
Layer1
10
104.5000
20
57.0000
30
0.0
0
VERTEX
5
1c3f
8
Layer1
10
90.5000
20
57.0000
30
0.0
0
VERTEX
5
1c40
8
Layer1
10
90.5000
20
56.0000
30
0.0
0
VERTEX
5
1c41
8
Layer1
10
89.7000
20
56.0000
30
0.0
0
VERTEX
5
1c42
8
Layer1
10
89.7000
20
44.0000
30
0.0
0
VERTEX
5
1c43
8
Layer1
10
90.5000
20
44.0000
30
0.0
0
VERTEX
5
1c44
8
Layer1
10
90.5000
20
43.0000
30
0.0
0
VERTEX
5
1c45
8
Layer1
10
104.5000
20
43.0000
30
0.0
0
VERTEX
5
1c46
8
Layer1
10
104.5000
20
44.0000
30
0.0
0
SEQEND
5
1c47
8
Layer1
0
POLYLINE
5
1c48
8
Layer1
66
1
10
0.0
20
0.0
30
0.0
70
1
0
VERTEX
5
1c49
8
Layer1
10
123.5000
20
44.0000
30
0.0
0
VERTEX
5
1c4a
8
Layer1
10
124.3000
20
44.0000
30
0.0
0
VERTEX
5
1c4b
8
Layer1
10
124.3000
20
56.0000
30
0.0
0
VERTEX
5
1c4c
8
Layer1
10
123.5000
20
56.0000
30
0.0
0
VERTEX
5
1c4d
8
Layer1
10
123.5000
20
57.0000
30
0.0
0
VERTEX
5
1c4e
8
Layer1
10
109.5000
20
57.0000
30
0.0
0
VERTEX
5
1c4f
8
Layer1
10
109.5000
20
56.0000
30
0.0
0
VERTEX
5
1c50
8
Layer1
10
108.7000
20
56.0000
30
0.0
0
VERTEX
5
1c51
8
Layer1
10
108.7000
20
44.0000
30
0.0
0
VERTEX
5
1c52
8
Layer1
10
109.5000
20
44.0000
30
0.0
0
VERTEX
5
1c53
8
Layer1
10
109.5000
20
43.0000
30
0.0
0
VERTEX
5
1c54
8
Layer1
10
123.5000
20
43.0000
30
0.0
0
VERTEX
5
1c55
8
Layer1
10
123.5000
20
44.0000
30
0.0
0
SEQEND
5
1c56
8
Layer1
0
POLYLINE
5
1c57
8
Layer1
66
1
10
0.0
20
0.0
30
0.0
70
1
0
VERTEX
5
1c58
8
Layer1
10
142.5000
20
44.0000
30
0.0
0
VERTEX
5
1c59
8
Layer1
10
143.3000
20
44.0000
30
0.0
0
VERTEX
5
1c5a
8
Layer1
10
143.3000
20
56.0000
30
0.0
0
VERTEX
5
1c5b
8
Layer1
10
142.5000
20
56.0000
30
0.0
0
VERTEX
5
1c5c
8
Layer1
10
142.5000
20
57.0000
30
0.0
0
VERTEX
5
1c5d
8
Layer1
10
128.5000
20
57.0000
30
0.0
0
VERTEX
5
1c5e
8
Layer1
10
128.5000
20
56.0000
30
0.0
0
VERTEX
5
1c5f
8
Layer1
10
127.7000
20
56.0000
30
0.0
0
VERTEX
5
1c60
8
Layer1
10
127.7000
20
44.0000
30
0.0
0
VERTEX
5
1c61
8
Layer1
10
128.5000
20
44.0000
30
0.0
0
VERTEX
5
1c62
8
Layer1
10
128.5000
20
43.0000
30
0.0
0
VERTEX
5
1c63
8
Layer1
10
142.5000
20
43.0000
30
0.0
0
VERTEX
5
1c64
8
Layer1
10
142.5000
20
44.0000
30
0.0
0
SEQEND
5
1c65
8
Layer1
0
POLYLINE
5
1c66
8
Layer1
66
1
10
0.0
20
0.0
30
0.0
70
1
0
VERTEX
5
1c67
8
Layer1
10
161.5000
20
44.0000
30
0.0
0
VERTEX
5
1c68
8
Layer1
10
162.3000
20
44.0000
30
0.0
0
VERTEX
5
1c69
8
Layer1
10
162.3000
20
56.0000
30
0.0
0
VERTEX
5
1c6a
8
Layer1
10
161.5000
20
56.0000
30
0.0
0
VERTEX
5
1c6b
8
Layer1
10
161.5000
20
57.0000
30
0.0
0
VERTEX
5
1c6c
8
Layer1
10
147.5000
20
57.0000
30
0.0
0
VERTEX
5
1c6d
8
Layer1
10
147.5000
20
56.0000
30
0.0
0
VERTEX
5
1c6e
8
Layer1
10
146.7000
20
56.0000
30
0.0
0
VERTEX
5
1c6f
8
Layer1
10
146.7000
20
44.0000
30
0.0
0
VERTEX
5
1c70
8
Layer1
10
147.5000
20
44.0000
30
0.0
0
VERTEX
5
1c71
8
Layer1
10
147.5000
20
43.0000
30
0.0
0
VERTEX
5
1c72
8
Layer1
10
161.5000
20
43.0000
30
0.0
0
VERTEX
5
1c73
8
Layer1
10
161.5000
20
44.0000
30
0.0
0
SEQEND
5
1c74
8
Layer1
0
POLYLINE
5
1c75
8
Layer1
66
1
10
0.0
20
0.0
30
0.0
70
1
0
VERTEX
5
1c76
8
Layer1
10
180.5000
20
44.0000
30
0.0
0
VERTEX
5
1c77
8
Layer1
10
181.3000
20
44.0000
30
0.0
0
VERTEX
5
1c78
8
Layer1
10
181.3000
20
56.0000
30
0.0
0
VERTEX
5
1c79
8
Layer1
10
180.5000
20
56.0000
30
0.0
0
VERTEX
5
1c7a
8
Layer1
10
180.5000
20
57.0000
30
0.0
0
VERTEX
5
1c7b
8
Layer1
10
166.5000
20
57.0000
30
0.0
0
VERTEX
5
1c7c
8
Layer1
10
166.5000
20
56.0000
30
0.0
0
VERTEX
5
1c7d
8
Layer1
10
165.7000
20
56.0000
30
0.0
0
VERTEX
5
1c7e
8
Layer1
10
165.7000
20
44.0000
30
0.0
0
VERTEX
5
1c7f
8
Layer1
10
166.5000
20
44.0000
30
0.0
0
VERTEX
5
1c80
8
Layer1
10
166.5000
20
43.0000
30
0.0
0
VERTEX
5
1c81
8
Layer1
10
180.5000
20
43.0000
30
0.0
0
VERTEX
5
1c82
8
Layer1
10
180.5000
20
44.0000
30
0.0
0
SEQEND
5
1c83
8
Layer1
0
POLYLINE
5
1c84
8
Layer1
66
1
10
0.0
20
0.0
30
0.0
70
1
0
VERTEX
5
1c85
8
Layer1
10
199.5000
20
44.0000
30
0.0
0
VERTEX
5
1c86
8
Layer1
10
200.3000
20
44.0000
30
0.0
0
VERTEX
5
1c87
8
Layer1
10
200.3000
20
56.0000
30
0.0
0
VERTEX
5
1c88
8
Layer1
10
199.5000
20
56.0000
30
0.0
0
VERTEX
5
1c89
8
Layer1
10
199.5000
20
57.0000
30
0.0
0
VERTEX
5
1c8a
8
Layer1
10
185.5000
20
57.0000
30
0.0
0
VERTEX
5
1c8b
8
Layer1
10
185.5000
20
56.0000
30
0.0
0
VERTEX
5
1c8c
8
Layer1
10
184.7000
20
56.0000
30
0.0
0
VERTEX
5
1c8d
8
Layer1
10
184.7000
20
44.0000
30
0.0
0
VERTEX
5
1c8e
8
Layer1
10
185.5000
20
44.0000
30
0.0
0
VERTEX
5
1c8f
8
Layer1
10
185.5000
20
43.0000
30
0.0
0
VERTEX
5
1c90
8
Layer1
10
199.5000
20
43.0000
30
0.0
0
VERTEX
5
1c91
8
Layer1
10
199.5000
20
44.0000
30
0.0
0
SEQEND
5
1c92
8
Layer1
0
POLYLINE
5
1c93
8
Layer1
66
1
10
0.0
20
0.0
30
0.0
70
1
0
VERTEX
5
1c94
8
Layer1
10
218.5000
20
44.0000
30
0.0
0
VERTEX
5
1c95
8
Layer1
10
219.3000
20
44.0000
30
0.0
0
VERTEX
5
1c96
8
Layer1
10
219.3000
20
56.0000
30
0.0
0
VERTEX
5
1c97
8
Layer1
10
218.5000
20
56.0000
30
0.0
0
VERTEX
5
1c98
8
Layer1
10
218.5000
20
57.0000
30
0.0
0
VERTEX
5
1c99
8
Layer1
10
204.5000
20
57.0000
30
0.0
0
VERTEX
5
1c9a
8
Layer1
10
204.5000
20
56.0000
30
0.0
0
VERTEX
5
1c9b
8
Layer1
10
203.7000
20
56.0000
30
0.0
0
VERTEX
5
1c9c
8
Layer1
10
203.7000
20
44.0000
30
0.0
0
VERTEX
5
1c9d
8
Layer1
10
204.5000
20
44.0000
30
0.0
0
VERTEX
5
1c9e
8
Layer1
10
204.5000
20
43.0000
30
0.0
0
VERTEX
5
1c9f
8
Layer1
10
218.5000
20
43.0000
30
0.0
0
VERTEX
5
1ca0
8
Layer1
10
218.5000
20
44.0000
30
0.0
0
SEQEND
5
1ca1
8
Layer1
0
POLYLINE
5
1ca2
8
Layer1
66
1
10
0.0
20
0.0
30
0.0
70
1
0
VERTEX
5
1ca3
8
Layer1
10
237.5000
20
44.0000
30
0.0
0
VERTEX
5
1ca4
8
Layer1
10
238.3000
20
44.0000
30
0.0
0
VERTEX
5
1ca5
8
Layer1
10
238.3000
20
56.0000
30
0.0
0
VERTEX
5
1ca6
8
Layer1
10
237.5000
20
56.0000
30
0.0
0
VERTEX
5
1ca7
8
Layer1
10
237.5000
20
57.0000
30
0.0
0
VERTEX
5
1ca8
8
Layer1
10
223.5000
20
57.0000
30
0.0
0
VERTEX
5
1ca9
8
Layer1
10
223.5000
20
56.0000
30
0.0
0
VERTEX
5
1caa
8
Layer1
10
222.7000
20
56.0000
30
0.0
0
VERTEX
5
1cab
8
Layer1
10
222.7000
20
44.0000
30
0.0
0
VERTEX
5
1cac
8
Layer1
10
223.5000
20
44.0000
30
0.0
0
VERTEX
5
1cad
8
Layer1
10
223.5000
20
43.0000
30
0.0
0
VERTEX
5
1cae
8
Layer1
10
237.5000
20
43.0000
30
0.0
0
VERTEX
5
1caf
8
Layer1
10
237.5000
20
44.0000
30
0.0
0
SEQEND
5
1cb0
8
Layer1
0
POLYLINE
5
1cb1
8
Layer1
66
1
10
0.0
20
0.0
30
0.0
70
1
0
VERTEX
5
1cb2
8
Layer1
10
248.6000
20
43.2300
30
0.0
0
VERTEX
5
1cb3
8
Layer1
10
250.4250
20
43.2300
30
0.0
0
VERTEX
5
1cb4
8
Layer1
10
250.4250
20
44.0300
30
0.0
0
VERTEX
5
1cb5
8
Layer1
10
251.2000
20
44.0300
30
0.0
0
VERTEX
5
1cb6
8
Layer1
10
251.2000
20
44.0000
30
0.0
0
VERTEX
5
1cb7
8
Layer1
10
252.0000
20
44.0000
30
0.0
0
VERTEX
5
1cb8
8
Layer1
10
252.0000
20
43.0000
30
0.0
0
VERTEX
5
1cb9
8
Layer1
10
266.0000
20
43.0000
30
0.0
0
VERTEX
5
1cba
8
Layer1
10
266.0000
20
44.0000
30
0.0
0
VERTEX
5
1cbb
8
Layer1
10
266.8000
20
44.0000
30
0.0
0
VERTEX
5
1cbc
8
Layer1
10
266.8000
20
44.0300
30
0.0
0
VERTEX
5
1cbd
8
Layer1
10
267.5750
20
44.0300
30
0.0
0
VERTEX
5
1cbe
8
Layer1
10
267.5750
20
43.2300
30
0.0
0
VERTEX
5
1cbf
8
Layer1
10
269.4000
20
43.2300
30
0.0
0
VERTEX
5
1cc0
8
Layer1
10
269.4000
20
42.0300
30
0.0
0
VERTEX
5
1cc1
8
Layer1
10
272.4000
20
42.0300
30
0.0
0
VERTEX
5
1cc2
8
Layer1
10
272.4000
20
43.2300
30
0.0
0
VERTEX
5
1cc3
8
Layer1
10
274.2250
20
43.2300
30
0.0
0
VERTEX
5
1cc4
8
Layer1
10
274.2250
20
49.5000
30
0.0
0
VERTEX
5
1cc5
8
Layer1
10
275.1000
20
49.5000
30
0.0
0
VERTEX
5
1cc6
8
Layer1
10
275.1000
20
52.3000
30
0.0
0
VERTEX
5
1cc7
8
Layer1
10
274.2250
20
52.3000
30
0.0
0
VERTEX
5
1cc8
8
Layer1
10
274.2250
20
55.5300
30
0.0
0
VERTEX
5
1cc9
8
Layer1
10
267.5750
20
55.5300
30
0.0
0
VERTEX
5
1cca
8
Layer1
10
267.5750
20
54.7300
30
0.0
0
VERTEX
5
1ccb
8
Layer1
10
266.8000
20
54.7300
30
0.0
0
VERTEX
5
1ccc
8
Layer1
10
266.8000
20
56.0000
30
0.0
0
VERTEX
5
1ccd
8
Layer1
10
266.0000
20
56.0000
30
0.0
0
VERTEX
5
1cce
8
Layer1
10
266.0000
20
57.0000
30
0.0
0
VERTEX
5
1ccf
8
Layer1
10
252.0000
20
57.0000
30
0.0
0
VERTEX
5
1cd0
8
Layer1
10
252.0000
20
56.0000
30
0.0
0
VERTEX
5
1cd1
8
Layer1
10
251.2000
20
56.0000
30
0.0
0
VERTEX
5
1cd2
8
Layer1
10
251.2000
20
54.7300
30
0.0
0
VERTEX
5
1cd3
8
Layer1
10
250.4250
20
54.7300
30
0.0
0
VERTEX
5
1cd4
8
Layer1
10
250.4250
20
55.5300
30
0.0
0
VERTEX
5
1cd5
8
Layer1
10
243.7750
20
55.5300
30
0.0
0
VERTEX
5
1cd6
8
Layer1
10
243.7750
20
52.3000
30
0.0
0
VERTEX
5
1cd7
8
Layer1
10
242.9000
20
52.3000
30
0.0
0
VERTEX
5
1cd8
8
Layer1
10
242.9000
20
49.5000
30
0.0
0
VERTEX
5
1cd9
8
Layer1
10
243.7750
20
49.5000
30
0.0
0
VERTEX
5
1cda
8
Layer1
10
243.7750
20
43.2300
30
0.0
0
VERTEX
5
1cdb
8
Layer1
10
245.6000
20
43.2300
30
0.0
0
VERTEX
5
1cdc
8
Layer1
10
245.6000
20
42.0300
30
0.0
0
VERTEX
5
1cdd
8
Layer1
10
248.6000
20
42.0300
30
0.0
0
VERTEX
5
1cde
8
Layer1
10
248.6000
20
43.2300
30
0.0
0
SEQEND
5
1cdf
8
Layer1
0
POLYLINE
5
1ce0
8
Layer1
66
1
10
0.0
20
0.0
30
0.0
70
1
0
VERTEX
5
1ce1
8
Layer1
10
11.1000
20
24.2300
30
0.0
0
VERTEX
5
1ce2
8
Layer1
10
12.9250
20
24.2300
30
0.0
0
VERTEX
5
1ce3
8
Layer1
10
12.9250
20
25.0300
30
0.0
0
VERTEX
5
1ce4
8
Layer1
10
13.7000
20
25.0300
30
0.0
0
VERTEX
5
1ce5
8
Layer1
10
13.7000
20
25.0000
30
0.0
0
VERTEX
5
1ce6
8
Layer1
10
14.5000
20
25.0000
30
0.0
0
VERTEX
5
1ce7
8
Layer1
10
14.5000
20
24.0000
30
0.0
0
VERTEX
5
1ce8
8
Layer1
10
28.5000
20
24.0000
30
0.0
0
VERTEX
5
1ce9
8
Layer1
10
28.5000
20
25.0000
30
0.0
0
VERTEX
5
1cea
8
Layer1
10
29.3000
20
25.0000
30
0.0
0
VERTEX
5
1ceb
8
Layer1
10
29.3000
20
25.0300
30
0.0
0
VERTEX
5
1cec
8
Layer1
10
30.0750
20
25.0300
30
0.0
0
VERTEX
5
1ced
8
Layer1
10
30.0750
20
24.2300
30
0.0
0
VERTEX
5
1cee
8
Layer1
10
31.9000
20
24.2300
30
0.0
0
VERTEX
5
1cef
8
Layer1
10
31.9000
20
23.0300
30
0.0
0
VERTEX
5
1cf0
8
Layer1
10
34.9000
20
23.0300
30
0.0
0
VERTEX
5
1cf1
8
Layer1
10
34.9000
20
24.2300
30
0.0
0
VERTEX
5
1cf2
8
Layer1
10
36.7250
20
24.2300
30
0.0
0
VERTEX
5
1cf3
8
Layer1
10
36.7250
20
30.5000
30
0.0
0
VERTEX
5
1cf4
8
Layer1
10
37.6000
20
30.5000
30
0.0
0
VERTEX
5
1cf5
8
Layer1
10
37.6000
20
33.3000
30
0.0
0
VERTEX
5
1cf6
8
Layer1
10
36.7250
20
33.3000
30
0.0
0
VERTEX
5
1cf7
8
Layer1
10
36.7250
20
36.5300
30
0.0
0
VERTEX
5
1cf8
8
Layer1
10
30.0750
20
36.5300
30
0.0
0
VERTEX
5
1cf9
8
Layer1
10
30.0750
20
35.7300
30
0.0
0
VERTEX
5
1cfa
8
Layer1
10
29.3000
20
35.7300
30
0.0
0
VERTEX
5
1cfb
8
Layer1
10
29.3000
20
37.0000
30
0.0
0
VERTEX
5
1cfc
8
Layer1
10
28.5000
20
37.0000
30
0.0
0
VERTEX
5
1cfd
8
Layer1
10
28.5000
20
38.0000
30
0.0
0
VERTEX
5
1cfe
8
Layer1
10
14.5000
20
38.0000
30
0.0
0
VERTEX
5
1cff
8
Layer1
10
14.5000
20
37.0000
30
0.0
0
VERTEX
5
1d00
8
Layer1
10
13.7000
20
37.0000
30
0.0
0
VERTEX
5
1d01
8
Layer1
10
13.7000
20
35.7300
30
0.0
0
VERTEX
5
1d02
8
Layer1
10
12.9250
20
35.7300
30
0.0
0
VERTEX
5
1d03
8
Layer1
10
12.9250
20
36.5300
30
0.0
0
VERTEX
5
1d04
8
Layer1
10
6.2750
20
36.5300
30
0.0
0
VERTEX
5
1d05
8
Layer1
10
6.2750
20
33.3000
30
0.0
0
VERTEX
5
1d06
8
Layer1
10
5.4000
20
33.3000
30
0.0
0
VERTEX
5
1d07
8
Layer1
10
5.4000
20
30.5000
30
0.0
0
VERTEX
5
1d08
8
Layer1
10
6.2750
20
30.5000
30
0.0
0
VERTEX
5
1d09
8
Layer1
10
6.2750
20
24.2300
30
0.0
0
VERTEX
5
1d0a
8
Layer1
10
8.1000
20
24.2300
30
0.0
0
VERTEX
5
1d0b
8
Layer1
10
8.1000
20
23.0300
30
0.0
0
VERTEX
5
1d0c
8
Layer1
10
11.1000
20
23.0300
30
0.0
0
VERTEX
5
1d0d
8
Layer1
10
11.1000
20
24.2300
30
0.0
0
SEQEND
5
1d0e
8
Layer1
0
POLYLINE
5
1d0f
8
Layer1
66
1
10
0.0
20
0.0
30
0.0
70
1
0
VERTEX
5
1d10
8
Layer1
10
57.0000
20
25.0000
30
0.0
0
VERTEX
5
1d11
8
Layer1
10
57.8000
20
25.0000
30
0.0
0
VERTEX
5
1d12
8
Layer1
10
57.8000
20
37.0000
30
0.0
0
VERTEX
5
1d13
8
Layer1
10
57.0000
20
37.0000
30
0.0
0
VERTEX
5
1d14
8
Layer1
10
57.0000
20
38.0000
30
0.0
0
VERTEX
5
1d15
8
Layer1
10
43.0000
20
38.0000
30
0.0
0
VERTEX
5
1d16
8
Layer1
10
43.0000
20
37.0000
30
0.0
0
VERTEX
5
1d17
8
Layer1
10
42.2000
20
37.0000
30
0.0
0
VERTEX
5
1d18
8
Layer1
10
42.2000
20
25.0000
30
0.0
0
VERTEX
5
1d19
8
Layer1
10
43.0000
20
25.0000
30
0.0
0
VERTEX
5
1d1a
8
Layer1
10
43.0000
20
24.0000
30
0.0
0
VERTEX
5
1d1b
8
Layer1
10
57.0000
20
24.0000
30
0.0
0
VERTEX
5
1d1c
8
Layer1
10
57.0000
20
25.0000
30
0.0
0
SEQEND
5
1d1d
8
Layer1
0
POLYLINE
5
1d1e
8
Layer1
66
1
10
0.0
20
0.0
30
0.0
70
1
0
VERTEX
5
1d1f
8
Layer1
10
76.0000
20
25.0000
30
0.0
0
VERTEX
5
1d20
8
Layer1
10
76.8000
20
25.0000
30
0.0
0
VERTEX
5
1d21
8
Layer1
10
76.8000
20
37.0000
30
0.0
0
VERTEX
5
1d22
8
Layer1
10
76.0000
20
37.0000
30
0.0
0
VERTEX
5
1d23
8
Layer1
10
76.0000
20
38.0000
30
0.0
0
VERTEX
5
1d24
8
Layer1
10
62.0000
20
38.0000
30
0.0
0
VERTEX
5
1d25
8
Layer1
10
62.0000
20
37.0000
30
0.0
0
VERTEX
5
1d26
8
Layer1
10
61.2000
20
37.0000
30
0.0
0
VERTEX
5
1d27
8
Layer1
10
61.2000
20
25.0000
30
0.0
0
VERTEX
5
1d28
8
Layer1
10
62.0000
20
25.0000
30
0.0
0
VERTEX
5
1d29
8
Layer1
10
62.0000
20
24.0000
30
0.0
0
VERTEX
5
1d2a
8
Layer1
10
76.0000
20
24.0000
30
0.0
0
VERTEX
5
1d2b
8
Layer1
10
76.0000
20
25.0000
30
0.0
0
SEQEND
5
1d2c
8
Layer1
0
POLYLINE
5
1d2d
8
Layer1
66
1
10
0.0
20
0.0
30
0.0
70
1
0
VERTEX
5
1d2e
8
Layer1
10
95.0000
20
25.0000
30
0.0
0
VERTEX
5
1d2f
8
Layer1
10
95.8000
20
25.0000
30
0.0
0
VERTEX
5
1d30
8
Layer1
10
95.8000
20
37.0000
30
0.0
0
VERTEX
5
1d31
8
Layer1
10
95.0000
20
37.0000
30
0.0
0
VERTEX
5
1d32
8
Layer1
10
95.0000
20
38.0000
30
0.0
0
VERTEX
5
1d33
8
Layer1
10
81.0000
20
38.0000
30
0.0
0
VERTEX
5
1d34
8
Layer1
10
81.0000
20
37.0000
30
0.0
0
VERTEX
5
1d35
8
Layer1
10
80.2000
20
37.0000
30
0.0
0
VERTEX
5
1d36
8
Layer1
10
80.2000
20
25.0000
30
0.0
0
VERTEX
5
1d37
8
Layer1
10
81.0000
20
25.0000
30
0.0
0
VERTEX
5
1d38
8
Layer1
10
81.0000
20
24.0000
30
0.0
0
VERTEX
5
1d39
8
Layer1
10
95.0000
20
24.0000
30
0.0
0
VERTEX
5
1d3a
8
Layer1
10
95.0000
20
25.0000
30
0.0
0
SEQEND
5
1d3b
8
Layer1
0
POLYLINE
5
1d3c
8
Layer1
66
1
10
0.0
20
0.0
30
0.0
70
1
0
VERTEX
5
1d3d
8
Layer1
10
114.0000
20
25.0000
30
0.0
0
VERTEX
5
1d3e
8
Layer1
10
114.8000
20
25.0000
30
0.0
0
VERTEX
5
1d3f
8
Layer1
10
114.8000
20
37.0000
30
0.0
0
VERTEX
5
1d40
8
Layer1
10
114.0000
20
37.0000
30
0.0
0
VERTEX
5
1d41
8
Layer1
10
114.0000
20
38.0000
30
0.0
0
VERTEX
5
1d42
8
Layer1
10
100.0000
20
38.0000
30
0.0
0
VERTEX
5
1d43
8
Layer1
10
100.0000
20
37.0000
30
0.0
0
VERTEX
5
1d44
8
Layer1
10
99.2000
20
37.0000
30
0.0
0
VERTEX
5
1d45
8
Layer1
10
99.2000
20
25.0000
30
0.0
0
VERTEX
5
1d46
8
Layer1
10
100.0000
20
25.0000
30
0.0
0
VERTEX
5
1d47
8
Layer1
10
100.0000
20
24.0000
30
0.0
0
VERTEX
5
1d48
8
Layer1
10
114.0000
20
24.0000
30
0.0
0
VERTEX
5
1d49
8
Layer1
10
114.0000
20
25.0000
30
0.0
0
SEQEND
5
1d4a
8
Layer1
0
POLYLINE
5
1d4b
8
Layer1
66
1
10
0.0
20
0.0
30
0.0
70
1
0
VERTEX
5
1d4c
8
Layer1
10
133.0000
20
25.0000
30
0.0
0
VERTEX
5
1d4d
8
Layer1
10
133.8000
20
25.0000
30
0.0
0
VERTEX
5
1d4e
8
Layer1
10
133.8000
20
37.0000
30
0.0
0
VERTEX
5
1d4f
8
Layer1
10
133.0000
20
37.0000
30
0.0
0
VERTEX
5
1d50
8
Layer1
10
133.0000
20
38.0000
30
0.0
0
VERTEX
5
1d51
8
Layer1
10
119.0000
20
38.0000
30
0.0
0
VERTEX
5
1d52
8
Layer1
10
119.0000
20
37.0000
30
0.0
0
VERTEX
5
1d53
8
Layer1
10
118.2000
20
37.0000
30
0.0
0
VERTEX
5
1d54
8
Layer1
10
118.2000
20
25.0000
30
0.0
0
VERTEX
5
1d55
8
Layer1
10
119.0000
20
25.0000
30
0.0
0
VERTEX
5
1d56
8
Layer1
10
119.0000
20
24.0000
30
0.0
0
VERTEX
5
1d57
8
Layer1
10
133.0000
20
24.0000
30
0.0
0
VERTEX
5
1d58
8
Layer1
10
133.0000
20
25.0000
30
0.0
0
SEQEND
5
1d59
8
Layer1
0
POLYLINE
5
1d5a
8
Layer1
66
1
10
0.0
20
0.0
30
0.0
70
1
0
VERTEX
5
1d5b
8
Layer1
10
152.0000
20
25.0000
30
0.0
0
VERTEX
5
1d5c
8
Layer1
10
152.8000
20
25.0000
30
0.0
0
VERTEX
5
1d5d
8
Layer1
10
152.8000
20
37.0000
30
0.0
0
VERTEX
5
1d5e
8
Layer1
10
152.0000
20
37.0000
30
0.0
0
VERTEX
5
1d5f
8
Layer1
10
152.0000
20
38.0000
30
0.0
0
VERTEX
5
1d60
8
Layer1
10
138.0000
20
38.0000
30
0.0
0
VERTEX
5
1d61
8
Layer1
10
138.0000
20
37.0000
30
0.0
0
VERTEX
5
1d62
8
Layer1
10
137.2000
20
37.0000
30
0.0
0
VERTEX
5
1d63
8
Layer1
10
137.2000
20
25.0000
30
0.0
0
VERTEX
5
1d64
8
Layer1
10
138.0000
20
25.0000
30
0.0
0
VERTEX
5
1d65
8
Layer1
10
138.0000
20
24.0000
30
0.0
0
VERTEX
5
1d66
8
Layer1
10
152.0000
20
24.0000
30
0.0
0
VERTEX
5
1d67
8
Layer1
10
152.0000
20
25.0000
30
0.0
0
SEQEND
5
1d68
8
Layer1
0
POLYLINE
5
1d69
8
Layer1
66
1
10
0.0
20
0.0
30
0.0
70
1
0
VERTEX
5
1d6a
8
Layer1
10
171.0000
20
25.0000
30
0.0
0
VERTEX
5
1d6b
8
Layer1
10
171.8000
20
25.0000
30
0.0
0
VERTEX
5
1d6c
8
Layer1
10
171.8000
20
37.0000
30
0.0
0
VERTEX
5
1d6d
8
Layer1
10
171.0000
20
37.0000
30
0.0
0
VERTEX
5
1d6e
8
Layer1
10
171.0000
20
38.0000
30
0.0
0
VERTEX
5
1d6f
8
Layer1
10
157.0000
20
38.0000
30
0.0
0
VERTEX
5
1d70
8
Layer1
10
157.0000
20
37.0000
30
0.0
0
VERTEX
5
1d71
8
Layer1
10
156.2000
20
37.0000
30
0.0
0
VERTEX
5
1d72
8
Layer1
10
156.2000
20
25.0000
30
0.0
0
VERTEX
5
1d73
8
Layer1
10
157.0000
20
25.0000
30
0.0
0
VERTEX
5
1d74
8
Layer1
10
157.0000
20
24.0000
30
0.0
0
VERTEX
5
1d75
8
Layer1
10
171.0000
20
24.0000
30
0.0
0
VERTEX
5
1d76
8
Layer1
10
171.0000
20
25.0000
30
0.0
0
SEQEND
5
1d77
8
Layer1
0
POLYLINE
5
1d78
8
Layer1
66
1
10
0.0
20
0.0
30
0.0
70
1
0
VERTEX
5
1d79
8
Layer1
10
190.0000
20
25.0000
30
0.0
0
VERTEX
5
1d7a
8
Layer1
10
190.8000
20
25.0000
30
0.0
0
VERTEX
5
1d7b
8
Layer1
10
190.8000
20
37.0000
30
0.0
0
VERTEX
5
1d7c
8
Layer1
10
190.0000
20
37.0000
30
0.0
0
VERTEX
5
1d7d
8
Layer1
10
190.0000
20
38.0000
30
0.0
0
VERTEX
5
1d7e
8
Layer1
10
176.0000
20
38.0000
30
0.0
0
VERTEX
5
1d7f
8
Layer1
10
176.0000
20
37.0000
30
0.0
0
VERTEX
5
1d80
8
Layer1
10
175.2000
20
37.0000
30
0.0
0
VERTEX
5
1d81
8
Layer1
10
175.2000
20
25.0000
30
0.0
0
VERTEX
5
1d82
8
Layer1
10
176.0000
20
25.0000
30
0.0
0
VERTEX
5
1d83
8
Layer1
10
176.0000
20
24.0000
30
0.0
0
VERTEX
5
1d84
8
Layer1
10
190.0000
20
24.0000
30
0.0
0
VERTEX
5
1d85
8
Layer1
10
190.0000
20
25.0000
30
0.0
0
SEQEND
5
1d86
8
Layer1
0
POLYLINE
5
1d87
8
Layer1
66
1
10
0.0
20
0.0
30
0.0
70
1
0
VERTEX
5
1d88
8
Layer1
10
209.0000
20
25.0000
30
0.0
0
VERTEX
5
1d89
8
Layer1
10
209.8000
20
25.0000
30
0.0
0
VERTEX
5
1d8a
8
Layer1
10
209.8000
20
37.0000
30
0.0
0
VERTEX
5
1d8b
8
Layer1
10
209.0000
20
37.0000
30
0.0
0
VERTEX
5
1d8c
8
Layer1
10
209.0000
20
38.0000
30
0.0
0
VERTEX
5
1d8d
8
Layer1
10
195.0000
20
38.0000
30
0.0
0
VERTEX
5
1d8e
8
Layer1
10
195.0000
20
37.0000
30
0.0
0
VERTEX
5
1d8f
8
Layer1
10
194.2000
20
37.0000
30
0.0
0
VERTEX
5
1d90
8
Layer1
10
194.2000
20
25.0000
30
0.0
0
VERTEX
5
1d91
8
Layer1
10
195.0000
20
25.0000
30
0.0
0
VERTEX
5
1d92
8
Layer1
10
195.0000
20
24.0000
30
0.0
0
VERTEX
5
1d93
8
Layer1
10
209.0000
20
24.0000
30
0.0
0
VERTEX
5
1d94
8
Layer1
10
209.0000
20
25.0000
30
0.0
0
SEQEND
5
1d95
8
Layer1
0
POLYLINE
5
1d96
8
Layer1
66
1
10
0.0
20
0.0
30
0.0
70
1
0
VERTEX
5
1d97
8
Layer1
10
228.0000
20
25.0000
30
0.0
0
VERTEX
5
1d98
8
Layer1
10
228.8000
20
25.0000
30
0.0
0
VERTEX
5
1d99
8
Layer1
10
228.8000
20
37.0000
30
0.0
0
VERTEX
5
1d9a
8
Layer1
10
228.0000
20
37.0000
30
0.0
0
VERTEX
5
1d9b
8
Layer1
10
228.0000
20
38.0000
30
0.0
0
VERTEX
5
1d9c
8
Layer1
10
214.0000
20
38.0000
30
0.0
0
VERTEX
5
1d9d
8
Layer1
10
214.0000
20
37.0000
30
0.0
0
VERTEX
5
1d9e
8
Layer1
10
213.2000
20
37.0000
30
0.0
0
VERTEX
5
1d9f
8
Layer1
10
213.2000
20
25.0000
30
0.0
0
VERTEX
5
1da0
8
Layer1
10
214.0000
20
25.0000
30
0.0
0
VERTEX
5
1da1
8
Layer1
10
214.0000
20
24.0000
30
0.0
0
VERTEX
5
1da2
8
Layer1
10
228.0000
20
24.0000
30
0.0
0
VERTEX
5
1da3
8
Layer1
10
228.0000
20
25.0000
30
0.0
0
SEQEND
5
1da4
8
Layer1
0
POLYLINE
5
1da5
8
Layer1
66
1
10
0.0
20
0.0
30
0.0
70
1
0
VERTEX
5
1da6
8
Layer1
10
247.0000
20
25.0000
30
0.0
0
VERTEX
5
1da7
8
Layer1
10
247.8000
20
25.0000
30
0.0
0
VERTEX
5
1da8
8
Layer1
10
247.8000
20
37.0000
30
0.0
0
VERTEX
5
1da9
8
Layer1
10
247.0000
20
37.0000
30
0.0
0
VERTEX
5
1daa
8
Layer1
10
247.0000
20
38.0000
30
0.0
0
VERTEX
5
1dab
8
Layer1
10
233.0000
20
38.0000
30
0.0
0
VERTEX
5
1dac
8
Layer1
10
233.0000
20
37.0000
30
0.0
0
VERTEX
5
1dad
8
Layer1
10
232.2000
20
37.0000
30
0.0
0
VERTEX
5
1dae
8
Layer1
10
232.2000
20
25.0000
30
0.0
0
VERTEX
5
1daf
8
Layer1
10
233.0000
20
25.0000
30
0.0
0
VERTEX
5
1db0
8
Layer1
10
233.0000
20
24.0000
30
0.0
0
VERTEX
5
1db1
8
Layer1
10
247.0000
20
24.0000
30
0.0
0
VERTEX
5
1db2
8
Layer1
10
247.0000
20
25.0000
30
0.0
0
SEQEND
5
1db3
8
Layer1
0
POLYLINE
5
1db4
8
Layer1
66
1
10
0.0
20
0.0
30
0.0
70
1
0
VERTEX
5
1db5
8
Layer1
10
270.7500
20
25.0000
30
0.0
0
VERTEX
5
1db6
8
Layer1
10
271.5500
20
25.0000
30
0.0
0
VERTEX
5
1db7
8
Layer1
10
271.5500
20
37.0000
30
0.0
0
VERTEX
5
1db8
8
Layer1
10
270.7500
20
37.0000
30
0.0
0
VERTEX
5
1db9
8
Layer1
10
270.7500
20
38.0000
30
0.0
0
VERTEX
5
1dba
8
Layer1
10
256.7500
20
38.0000
30
0.0
0
VERTEX
5
1dbb
8
Layer1
10
256.7500
20
37.0000
30
0.0
0
VERTEX
5
1dbc
8
Layer1
10
255.9500
20
37.0000
30
0.0
0
VERTEX
5
1dbd
8
Layer1
10
255.9500
20
25.0000
30
0.0
0
VERTEX
5
1dbe
8
Layer1
10
256.7500
20
25.0000
30
0.0
0
VERTEX
5
1dbf
8
Layer1
10
256.7500
20
24.0000
30
0.0
0
VERTEX
5
1dc0
8
Layer1
10
270.7500
20
24.0000
30
0.0
0
VERTEX
5
1dc1
8
Layer1
10
270.7500
20
25.0000
30
0.0
0
SEQEND
5
1dc2
8
Layer1
0
POLYLINE
5
1dc3
8
Layer1
66
1
10
0.0
20
0.0
30
0.0
70
1
0
VERTEX
5
1dc4
8
Layer1
10
30.8750
20
6.0000
30
0.0
0
VERTEX
5
1dc5
8
Layer1
10
31.6750
20
6.0000
30
0.0
0
VERTEX
5
1dc6
8
Layer1
10
31.6750
20
18.0000
30
0.0
0
VERTEX
5
1dc7
8
Layer1
10
30.8750
20
18.0000
30
0.0
0
VERTEX
5
1dc8
8
Layer1
10
30.8750
20
19.0000
30
0.0
0
VERTEX
5
1dc9
8
Layer1
10
16.8750
20
19.0000
30
0.0
0
VERTEX
5
1dca
8
Layer1
10
16.8750
20
18.0000
30
0.0
0
VERTEX
5
1dcb
8
Layer1
10
16.0750
20
18.0000
30
0.0
0
VERTEX
5
1dcc
8
Layer1
10
16.0750
20
6.0000
30
0.0
0
VERTEX
5
1dcd
8
Layer1
10
16.8750
20
6.0000
30
0.0
0
VERTEX
5
1dce
8
Layer1
10
16.8750
20
5.0000
30
0.0
0
VERTEX
5
1dcf
8
Layer1
10
30.8750
20
5.0000
30
0.0
0
VERTEX
5
1dd0
8
Layer1
10
30.8750
20
6.0000
30
0.0
0
SEQEND
5
1dd1
8
Layer1
0
POLYLINE
5
1dd2
8
Layer1
66
1
10
0.0
20
0.0
30
0.0
70
1
0
VERTEX
5
1dd3
8
Layer1
10
52.2500
20
6.0000
30
0.0
0
VERTEX
5
1dd4
8
Layer1
10
53.0500
20
6.0000
30
0.0
0
VERTEX
5
1dd5
8
Layer1
10
53.0500
20
18.0000
30
0.0
0
VERTEX
5
1dd6
8
Layer1
10
52.2500
20
18.0000
30
0.0
0
VERTEX
5
1dd7
8
Layer1
10
52.2500
20
19.0000
30
0.0
0
VERTEX
5
1dd8
8
Layer1
10
38.2500
20
19.0000
30
0.0
0
VERTEX
5
1dd9
8
Layer1
10
38.2500
20
18.0000
30
0.0
0
VERTEX
5
1dda
8
Layer1
10
37.4500
20
18.0000
30
0.0
0
VERTEX
5
1ddb
8
Layer1
10
37.4500
20
6.0000
30
0.0
0
VERTEX
5
1ddc
8
Layer1
10
38.2500
20
6.0000
30
0.0
0
VERTEX
5
1ddd
8
Layer1
10
38.2500
20
5.0000
30
0.0
0
VERTEX
5
1dde
8
Layer1
10
52.2500
20
5.0000
30
0.0
0
VERTEX
5
1ddf
8
Layer1
10
52.2500
20
6.0000
30
0.0
0
SEQEND
5
1de0
8
Layer1
0
POLYLINE
5
1de1
8
Layer1
66
1
10
0.0
20
0.0
30
0.0
70
1
0
VERTEX
5
1de2
8
Layer1
10
71.2500
20
6.0000
30
0.0
0
VERTEX
5
1de3
8
Layer1
10
72.0500
20
6.0000
30
0.0
0
VERTEX
5
1de4
8
Layer1
10
72.0500
20
18.0000
30
0.0
0
VERTEX
5
1de5
8
Layer1
10
71.2500
20
18.0000
30
0.0
0
VERTEX
5
1de6
8
Layer1
10
71.2500
20
19.0000
30
0.0
0
VERTEX
5
1de7
8
Layer1
10
57.2500
20
19.0000
30
0.0
0
VERTEX
5
1de8
8
Layer1
10
57.2500
20
18.0000
30
0.0
0
VERTEX
5
1de9
8
Layer1
10
56.4500
20
18.0000
30
0.0
0
VERTEX
5
1dea
8
Layer1
10
56.4500
20
6.0000
30
0.0
0
VERTEX
5
1deb
8
Layer1
10
57.2500
20
6.0000
30
0.0
0
VERTEX
5
1dec
8
Layer1
10
57.2500
20
5.0000
30
0.0
0
VERTEX
5
1ded
8
Layer1
10
71.2500
20
5.0000
30
0.0
0
VERTEX
5
1dee
8
Layer1
10
71.2500
20
6.0000
30
0.0
0
SEQEND
5
1def
8
Layer1
0
POLYLINE
5
1df0
8
Layer1
66
1
10
0.0
20
0.0
30
0.0
70
1
0
VERTEX
5
1df1
8
Layer1
10
89.4750
20
5.2300
30
0.0
0
VERTEX
5
1df2
8
Layer1
10
91.3000
20
5.2300
30
0.0
0
VERTEX
5
1df3
8
Layer1
10
91.3000
20
6.0300
30
0.0
0
VERTEX
5
1df4
8
Layer1
10
92.0750
20
6.0300
30
0.0
0
VERTEX
5
1df5
8
Layer1
10
92.0750
20
6.0000
30
0.0
0
VERTEX
5
1df6
8
Layer1
10
92.8750
20
6.0000
30
0.0
0
VERTEX
5
1df7
8
Layer1
10
92.8750
20
5.0000
30
0.0
0
VERTEX
5
1df8
8
Layer1
10
106.8750
20
5.0000
30
0.0
0
VERTEX
5
1df9
8
Layer1
10
106.8750
20
6.0000
30
0.0
0
VERTEX
5
1dfa
8
Layer1
10
107.6750
20
6.0000
30
0.0
0
VERTEX
5
1dfb
8
Layer1
10
107.6750
20
6.0300
30
0.0
0
VERTEX
5
1dfc
8
Layer1
10
108.4500
20
6.0300
30
0.0
0
VERTEX
5
1dfd
8
Layer1
10
108.4500
20
5.2300
30
0.0
0
VERTEX
5
1dfe
8
Layer1
10
110.2750
20
5.2300
30
0.0
0
VERTEX
5
1dff
8
Layer1
10
110.2750
20
4.0300
30
0.0
0
VERTEX
5
1e00
8
Layer1
10
113.2750
20
4.0300
30
0.0
0
VERTEX
5
1e01
8
Layer1
10
113.2750
20
5.2300
30
0.0
0
VERTEX
5
1e02
8
Layer1
10
115.1000
20
5.2300
30
0.0
0
VERTEX
5
1e03
8
Layer1
10
115.1000
20
11.5000
30
0.0
0
VERTEX
5
1e04
8
Layer1
10
115.9750
20
11.5000
30
0.0
0
VERTEX
5
1e05
8
Layer1
10
115.9750
20
14.3000
30
0.0
0
VERTEX
5
1e06
8
Layer1
10
115.1000
20
14.3000
30
0.0
0
VERTEX
5
1e07
8
Layer1
10
115.1000
20
17.5300
30
0.0
0
VERTEX
5
1e08
8
Layer1
10
108.4500
20
17.5300
30
0.0
0
VERTEX
5
1e09
8
Layer1
10
108.4500
20
16.7300
30
0.0
0
VERTEX
5
1e0a
8
Layer1
10
107.6750
20
16.7300
30
0.0
0
VERTEX
5
1e0b
8
Layer1
10
107.6750
20
18.0000
30
0.0
0
VERTEX
5
1e0c
8
Layer1
10
106.8750
20
18.0000
30
0.0
0
VERTEX
5
1e0d
8
Layer1
10
106.8750
20
19.0000
30
0.0
0
VERTEX
5
1e0e
8
Layer1
10
92.8750
20
19.0000
30
0.0
0
VERTEX
5
1e0f
8
Layer1
10
92.8750
20
18.0000
30
0.0
0
VERTEX
5
1e10
8
Layer1
10
92.0750
20
18.0000
30
0.0
0
VERTEX
5
1e11
8
Layer1
10
92.0750
20
16.7300
30
0.0
0
VERTEX
5
1e12
8
Layer1
10
91.3000
20
16.7300
30
0.0
0
VERTEX
5
1e13
8
Layer1
10
91.3000
20
17.5300
30
0.0
0
VERTEX
5
1e14
8
Layer1
10
84.6500
20
17.5300
30
0.0
0
VERTEX
5
1e15
8
Layer1
10
84.6500
20
14.3000
30
0.0
0
VERTEX
5
1e16
8
Layer1
10
83.7750
20
14.3000
30
0.0
0
VERTEX
5
1e17
8
Layer1
10
83.7750
20
11.5000
30
0.0
0
VERTEX
5
1e18
8
Layer1
10
84.6500
20
11.5000
30
0.0
0
VERTEX
5
1e19
8
Layer1
10
84.6500
20
5.2300
30
0.0
0
VERTEX
5
1e1a
8
Layer1
10
86.4750
20
5.2300
30
0.0
0
VERTEX
5
1e1b
8
Layer1
10
86.4750
20
4.0300
30
0.0
0
VERTEX
5
1e1c
8
Layer1
10
89.4750
20
4.0300
30
0.0
0
VERTEX
5
1e1d
8
Layer1
10
89.4750
20
5.2300
30
0.0
0
SEQEND
5
1e1e
8
Layer1
0
POLYLINE
5
1e1f
8
Layer1
66
1
10
0.0
20
0.0
30
0.0
70
1
0
VERTEX
5
1e20
8
Layer1
10
141.7250
20
5.2300
30
0.0
0
VERTEX
5
1e21
8
Layer1
10
143.5500
20
5.2300
30
0.0
0
VERTEX
5
1e22
8
Layer1
10
143.5500
20
6.0300
30
0.0
0
VERTEX
5
1e23
8
Layer1
10
144.3250
20
6.0300
30
0.0
0
VERTEX
5
1e24
8
Layer1
10
144.3250
20
6.0000
30
0.0
0
VERTEX
5
1e25
8
Layer1
10
145.1250
20
6.0000
30
0.0
0
VERTEX
5
1e26
8
Layer1
10
145.1250
20
5.0000
30
0.0
0
VERTEX
5
1e27
8
Layer1
10
159.1250
20
5.0000
30
0.0
0
VERTEX
5
1e28
8
Layer1
10
159.1250
20
6.0000
30
0.0
0
VERTEX
5
1e29
8
Layer1
10
159.9250
20
6.0000
30
0.0
0
VERTEX
5
1e2a
8
Layer1
10
159.9250
20
6.0300
30
0.0
0
VERTEX
5
1e2b
8
Layer1
10
160.7000
20
6.0300
30
0.0
0
VERTEX
5
1e2c
8
Layer1
10
160.7000
20
5.2300
30
0.0
0
VERTEX
5
1e2d
8
Layer1
10
162.5250
20
5.2300
30
0.0
0
VERTEX
5
1e2e
8
Layer1
10
162.5250
20
4.0300
30
0.0
0
VERTEX
5
1e2f
8
Layer1
10
165.5250
20
4.0300
30
0.0
0
VERTEX
5
1e30
8
Layer1
10
165.5250
20
5.2300
30
0.0
0
VERTEX
5
1e31
8
Layer1
10
167.3500
20
5.2300
30
0.0
0
VERTEX
5
1e32
8
Layer1
10
167.3500
20
11.5000
30
0.0
0
VERTEX
5
1e33
8
Layer1
10
168.2250
20
11.5000
30
0.0
0
VERTEX
5
1e34
8
Layer1
10
168.2250
20
14.3000
30
0.0
0
VERTEX
5
1e35
8
Layer1
10
167.3500
20
14.3000
30
0.0
0
VERTEX
5
1e36
8
Layer1
10
167.3500
20
17.5300
30
0.0
0
VERTEX
5
1e37
8
Layer1
10
160.7000
20
17.5300
30
0.0
0
VERTEX
5
1e38
8
Layer1
10
160.7000
20
16.7300
30
0.0
0
VERTEX
5
1e39
8
Layer1
10
159.9250
20
16.7300
30
0.0
0
VERTEX
5
1e3a
8
Layer1
10
159.9250
20
18.0000
30
0.0
0
VERTEX
5
1e3b
8
Layer1
10
159.1250
20
18.0000
30
0.0
0
VERTEX
5
1e3c
8
Layer1
10
159.1250
20
19.0000
30
0.0
0
VERTEX
5
1e3d
8
Layer1
10
145.1250
20
19.0000
30
0.0
0
VERTEX
5
1e3e
8
Layer1
10
145.1250
20
18.0000
30
0.0
0
VERTEX
5
1e3f
8
Layer1
10
144.3250
20
18.0000
30
0.0
0
VERTEX
5
1e40
8
Layer1
10
144.3250
20
16.7300
30
0.0
0
VERTEX
5
1e41
8
Layer1
10
143.5500
20
16.7300
30
0.0
0
VERTEX
5
1e42
8
Layer1
10
143.5500
20
17.5300
30
0.0
0
VERTEX
5
1e43
8
Layer1
10
136.9000
20
17.5300
30
0.0
0
VERTEX
5
1e44
8
Layer1
10
136.9000
20
14.3000
30
0.0
0
VERTEX
5
1e45
8
Layer1
10
136.0250
20
14.3000
30
0.0
0
VERTEX
5
1e46
8
Layer1
10
136.0250
20
11.5000
30
0.0
0
VERTEX
5
1e47
8
Layer1
10
136.9000
20
11.5000
30
0.0
0
VERTEX
5
1e48
8
Layer1
10
136.9000
20
5.2300
30
0.0
0
VERTEX
5
1e49
8
Layer1
10
138.7250
20
5.2300
30
0.0
0
VERTEX
5
1e4a
8
Layer1
10
138.7250
20
4.0300
30
0.0
0
VERTEX
5
1e4b
8
Layer1
10
141.7250
20
4.0300
30
0.0
0
VERTEX
5
1e4c
8
Layer1
10
141.7250
20
5.2300
30
0.0
0
SEQEND
5
1e4d
8
Layer1
0
POLYLINE
5
1e4e
8
Layer1
66
1
10
0.0
20
0.0
30
0.0
70
1
0
VERTEX
5
1e4f
8
Layer1
10
197.1250
20
6.0000
30
0.0
0
VERTEX
5
1e50
8
Layer1
10
197.9250
20
6.0000
30
0.0
0
VERTEX
5
1e51
8
Layer1
10
197.9250
20
18.0000
30
0.0
0
VERTEX
5
1e52
8
Layer1
10
197.1250
20
18.0000
30
0.0
0
VERTEX
5
1e53
8
Layer1
10
197.1250
20
19.0000
30
0.0
0
VERTEX
5
1e54
8
Layer1
10
183.1250
20
19.0000
30
0.0
0
VERTEX
5
1e55
8
Layer1
10
183.1250
20
18.0000
30
0.0
0
VERTEX
5
1e56
8
Layer1
10
182.3250
20
18.0000
30
0.0
0
VERTEX
5
1e57
8
Layer1
10
182.3250
20
6.0000
30
0.0
0
VERTEX
5
1e58
8
Layer1
10
183.1250
20
6.0000
30
0.0
0
VERTEX
5
1e59
8
Layer1
10
183.1250
20
5.0000
30
0.0
0
VERTEX
5
1e5a
8
Layer1
10
197.1250
20
5.0000
30
0.0
0
VERTEX
5
1e5b
8
Layer1
10
197.1250
20
6.0000
30
0.0
0
SEQEND
5
1e5c
8
Layer1
0
POLYLINE
5
1e5d
8
Layer1
66
1
10
0.0
20
0.0
30
0.0
70
1
0
VERTEX
5
1e5e
8
Layer1
10
228.0000
20
6.0000
30
0.0
0
VERTEX
5
1e5f
8
Layer1
10
228.8000
20
6.0000
30
0.0
0
VERTEX
5
1e60
8
Layer1
10
228.8000
20
18.0000
30
0.0
0
VERTEX
5
1e61
8
Layer1
10
228.0000
20
18.0000
30
0.0
0
VERTEX
5
1e62
8
Layer1
10
228.0000
20
19.0000
30
0.0
0
VERTEX
5
1e63
8
Layer1
10
214.0000
20
19.0000
30
0.0
0
VERTEX
5
1e64
8
Layer1
10
214.0000
20
18.0000
30
0.0
0
VERTEX
5
1e65
8
Layer1
10
213.2000
20
18.0000
30
0.0
0
VERTEX
5
1e66
8
Layer1
10
213.2000
20
6.0000
30
0.0
0
VERTEX
5
1e67
8
Layer1
10
214.0000
20
6.0000
30
0.0
0
VERTEX
5
1e68
8
Layer1
10
214.0000
20
5.0000
30
0.0
0
VERTEX
5
1e69
8
Layer1
10
228.0000
20
5.0000
30
0.0
0
VERTEX
5
1e6a
8
Layer1
10
228.0000
20
6.0000
30
0.0
0
SEQEND
5
1e6b
8
Layer1
0
POLYLINE
5
1e6c
8
Layer1
66
1
10
0.0
20
0.0
30
0.0
70
1
0
VERTEX
5
1e6d
8
Layer1
10
247.0000
20
6.0000
30
0.0
0
VERTEX
5
1e6e
8
Layer1
10
247.8000
20
6.0000
30
0.0
0
VERTEX
5
1e6f
8
Layer1
10
247.8000
20
18.0000
30
0.0
0
VERTEX
5
1e70
8
Layer1
10
247.0000
20
18.0000
30
0.0
0
VERTEX
5
1e71
8
Layer1
10
247.0000
20
19.0000
30
0.0
0
VERTEX
5
1e72
8
Layer1
10
233.0000
20
19.0000
30
0.0
0
VERTEX
5
1e73
8
Layer1
10
233.0000
20
18.0000
30
0.0
0
VERTEX
5
1e74
8
Layer1
10
232.2000
20
18.0000
30
0.0
0
VERTEX
5
1e75
8
Layer1
10
232.2000
20
6.0000
30
0.0
0
VERTEX
5
1e76
8
Layer1
10
233.0000
20
6.0000
30
0.0
0
VERTEX
5
1e77
8
Layer1
10
233.0000
20
5.0000
30
0.0
0
VERTEX
5
1e78
8
Layer1
10
247.0000
20
5.0000
30
0.0
0
VERTEX
5
1e79
8
Layer1
10
247.0000
20
6.0000
30
0.0
0
SEQEND
5
1e7a
8
Layer1
0
POLYLINE
5
1e7b
8
Layer1
66
1
10
0.0
20
0.0
30
0.0
70
1
0
VERTEX
5
1e7c
8
Layer1
10
266.0000
20
6.0000
30
0.0
0
VERTEX
5
1e7d
8
Layer1
10
266.8000
20
6.0000
30
0.0
0
VERTEX
5
1e7e
8
Layer1
10
266.8000
20
18.0000
30
0.0
0
VERTEX
5
1e7f
8
Layer1
10
266.0000
20
18.0000
30
0.0
0
VERTEX
5
1e80
8
Layer1
10
266.0000
20
19.0000
30
0.0
0
VERTEX
5
1e81
8
Layer1
10
252.0000
20
19.0000
30
0.0
0
VERTEX
5
1e82
8
Layer1
10
252.0000
20
18.0000
30
0.0
0
VERTEX
5
1e83
8
Layer1
10
251.2000
20
18.0000
30
0.0
0
VERTEX
5
1e84
8
Layer1
10
251.2000
20
6.0000
30
0.0
0
VERTEX
5
1e85
8
Layer1
10
252.0000
20
6.0000
30
0.0
0
VERTEX
5
1e86
8
Layer1
10
252.0000
20
5.0000
30
0.0
0
VERTEX
5
1e87
8
Layer1
10
266.0000
20
5.0000
30
0.0
0
VERTEX
5
1e88
8
Layer1
10
266.0000
20
6.0000
30
0.0
0
SEQEND
5
1e89
8
Layer1
0
ENDSEC
0
EOF
